<svg width="18" height="18" viewBox="0 0 18 18" fill="none" xmlns="http://www.w3.org/2000/svg">
<path d="M5.825 9L7.3 7.525C7.5 7.325 7.6 7.09167 7.6 6.825C7.6 6.55833 7.5 6.325 7.3 6.125C7.1 5.925 6.8625 5.825 6.5875 5.825C6.3125 5.825 6.075 5.925 5.875 6.125L3.7 8.3C3.6 8.4 3.52917 8.50833 3.4875 8.625C3.44583 8.74167 3.425 8.86667 3.425 9C3.425 9.13333 3.44583 9.25833 3.4875 9.375C3.52917 9.49167 3.6 9.6 3.7 9.7L5.875 11.875C6.075 12.075 6.3125 12.175 6.5875 12.175C6.8625 12.175 7.1 12.075 7.3 11.875C7.5 11.675 7.6 11.4417 7.6 11.175C7.6 10.9083 7.5 10.675 7.3 10.475L5.825 9ZM12.175 9L10.7 10.475C10.5 10.675 10.4 10.9083 10.4 11.175C10.4 11.4417 10.5 11.675 10.7 11.875C10.9 12.075 11.1375 12.175 11.4125 12.175C11.6875 12.175 11.925 12.075 12.125 11.875L14.3 9.7C14.4 9.6 14.4708 9.49167 14.5125 9.375C14.5542 9.25833 14.575 9.13333 14.575 9C14.575 8.86667 14.5542 8.74167 14.5125 8.625C14.4708 8.50833 14.4 8.4 14.3 8.3L12.125 6.125C12.025 6.025 11.9125 5.95 11.7875 5.9C11.6625 5.85 11.5375 5.825 11.4125 5.825C11.2875 5.825 11.1625 5.85 11.0375 5.9C10.9125 5.95 10.8 6.025 10.7 6.125C10.5 6.325 10.4 6.55833 10.4 6.825C10.4 7.09167 10.5 7.325 10.7 7.525L12.175 9ZM2 18C1.45 18 0.979167 17.8042 0.5875 17.4125C0.195833 17.0208 0 16.55 0 16V2C0 1.45 0.195833 0.979167 0.5875 0.5875C0.979167 0.195833 1.45 0 2 0H16C16.55 0 17.0208 0.195833 17.4125 0.5875C17.8042 0.979167 18 1.45 18 2V16C18 16.55 17.8042 17.0208 17.4125 17.4125C17.0208 17.8042 16.55 18 16 18H2ZM2 16H16V2H2V16Z" fill="#25578F"/>
</svg>
