<svg width="24" height="24" viewBox="0 0 24 24" fill="none" xmlns="http://www.w3.org/2000/svg">
<path d="M16 17C17.3833 17 18.5627 16.5123 19.538 15.537C20.5127 14.5623 21 13.3833 21 12C21 10.6167 20.5127 9.43733 19.538 8.462C18.5627 7.48733 17.3833 7 16 7C15.55 7 15.1127 7.05833 14.688 7.175C14.2627 7.29167 13.8667 7.45833 13.5 7.675C13.9833 8.275 14.3543 8.94167 14.613 9.675C14.871 10.4083 15 11.1833 15 12C15 12.8167 14.871 13.5917 14.613 14.325C14.3543 15.0583 13.9833 15.725 13.5 16.325C13.8667 16.5417 14.2627 16.7083 14.688 16.825C15.1127 16.9417 15.55 17 16 17ZM12 15C12.3167 14.5833 12.5627 14.121 12.738 13.613C12.9127 13.1043 13 12.5667 13 12C13 11.4333 12.9127 10.8957 12.738 10.387C12.5627 9.879 12.3167 9.41667 12 9C11.6833 9.41667 11.4373 9.879 11.262 10.387C11.0873 10.8957 11 11.4333 11 12C11 12.5667 11.0873 13.1043 11.262 13.613C11.4373 14.121 11.6833 14.5833 12 15ZM8 17C8.45 17 8.88733 16.9417 9.312 16.825C9.73733 16.7083 10.1333 16.5417 10.5 16.325C10.0167 15.725 9.64567 15.0583 9.387 14.325C9.129 13.5917 9 12.8167 9 12C9 11.1833 9.129 10.4083 9.387 9.675C9.64567 8.94167 10.0167 8.275 10.5 7.675C10.1333 7.45833 9.73733 7.29167 9.312 7.175C8.88733 7.05833 8.45 7 8 7C6.61667 7 5.43767 7.48733 4.463 8.462C3.48767 9.43733 3 10.6167 3 12C3 13.3833 3.48767 14.5623 4.463 15.537C5.43767 16.5123 6.61667 17 8 17ZM8 19C6.05 19 4.396 18.3207 3.038 16.962C1.67933 15.604 1 13.95 1 12C1 10.05 1.67933 8.39567 3.038 7.037C4.396 5.679 6.05 5 8 5C8.75 5 9.46233 5.10833 10.137 5.325C10.8123 5.54167 11.4333 5.85 12 6.25C12.5667 5.85 13.1877 5.54167 13.863 5.325C14.5377 5.10833 15.25 5 16 5C17.95 5 19.604 5.679 20.962 7.037C22.3207 8.39567 23 10.05 23 12C23 13.95 22.3207 15.604 20.962 16.962C19.604 18.3207 17.95 19 16 19C15.25 19 14.5377 18.8917 13.863 18.675C13.1877 18.4583 12.5667 18.15 12 17.75C11.4333 18.15 10.8123 18.4583 10.137 18.675C9.46233 18.8917 8.75 19 8 19Z" fill="#092D53"/>
</svg>
