<svg width="24" height="24" viewBox="0 0 24 24" fill="none" xmlns="http://www.w3.org/2000/svg">
<path d="M12 15.75C13.0375 15.75 13.922 15.3842 14.6535 14.6528C15.3845 13.9217 15.75 13.0375 15.75 12C15.75 10.9625 15.3845 10.078 14.6535 9.3465C13.922 8.6155 13.0375 8.25 12 8.25C11.6625 8.25 11.3345 8.29375 11.016 8.38125C10.697 8.46875 10.4 8.59375 10.125 8.75625C10.4875 9.20625 10.7657 9.70625 10.9598 10.2563C11.1532 10.8063 11.25 11.3875 11.25 12C11.25 12.6125 11.1532 13.1937 10.9598 13.7437C10.7657 14.2937 10.4875 14.7938 10.125 15.2438C10.4 15.4063 10.697 15.5313 11.016 15.6188C11.3345 15.7063 11.6625 15.75 12 15.75ZM9 14.25C9.2375 13.9375 9.422 13.5907 9.5535 13.2098C9.6845 12.8282 9.75 12.425 9.75 12C9.75 11.575 9.6845 11.1718 9.5535 10.7902C9.422 10.4093 9.2375 10.0625 9 9.75C8.7625 10.0625 8.578 10.4093 8.4465 10.7902C8.3155 11.1718 8.25 11.575 8.25 12C8.25 12.425 8.3155 12.8282 8.4465 13.2098C8.578 13.5907 8.7625 13.9375 9 14.25ZM6 15.75C6.3375 15.75 6.6655 15.7063 6.984 15.6188C7.303 15.5313 7.6 15.4063 7.875 15.2438C7.5125 14.7938 7.23425 14.2937 7.04025 13.7437C6.84675 13.1937 6.75 12.6125 6.75 12C6.75 11.3875 6.84675 10.8063 7.04025 10.2563C7.23425 9.70625 7.5125 9.20625 7.875 8.75625C7.6 8.59375 7.303 8.46875 6.984 8.38125C6.6655 8.29375 6.3375 8.25 6 8.25C4.9625 8.25 4.07825 8.6155 3.34725 9.3465C2.61575 10.078 2.25 10.9625 2.25 12C2.25 13.0375 2.61575 13.9217 3.34725 14.6528C4.07825 15.3842 4.9625 15.75 6 15.75ZM6 17.25C4.5375 17.25 3.297 16.7405 2.2785 15.7215C1.2595 14.703 0.75 13.4625 0.75 12C0.75 10.5375 1.2595 9.29675 2.2785 8.27775C3.297 7.25925 4.5375 6.75 6 6.75C6.5625 6.75 7.09675 6.83125 7.60275 6.99375C8.10925 7.15625 8.575 7.3875 9 7.6875C9.425 7.3875 9.89075 7.15625 10.3973 6.99375C10.9032 6.83125 11.4375 6.75 12 6.75C13.4625 6.75 14.703 7.25925 15.7215 8.27775C16.7405 9.29675 17.25 10.5375 17.25 12C17.25 13.4625 16.7405 14.703 15.7215 15.7215C14.703 16.7405 13.4625 17.25 12 17.25C11.4375 17.25 10.9032 17.1687 10.3973 17.0062C9.89075 16.8437 9.425 16.6125 9 16.3125C8.575 16.6125 8.10925 16.8437 7.60275 17.0062C7.09675 17.1687 6.5625 17.25 6 17.25Z" fill="#092D53"/>
<g clip-path="url(#clip0_6765_144194)">
<path d="M16 2.5C16 2.5 14.8338 2.79993 14.3271 3.32712C13.8204 3.85432 13.5 5 13.5 5C13.5 5 13.3305 3.85432 12.7157 3.24143C12.101 2.62668 11 2.5 11 2.5C11 2.5 12.1978 2.2541 12.7157 1.73808C13.2336 1.22206 13.5 0 13.5 0C13.5 0 13.7459 1.2854 14.2098 1.7269C14.6736 2.16841 16.0019 2.5 16.0019 2.5H16Z" fill="#092D53"/>
</g>
<g clip-path="url(#clip1_6765_144194)">
<path d="M24 12.5C24 12.5 22.8338 12.7999 22.3271 13.3271C21.8204 13.8543 21.5 15 21.5 15C21.5 15 21.3305 13.8543 20.7157 13.2414C20.101 12.6267 19 12.5 19 12.5C19 12.5 20.1978 12.2541 20.7157 11.7381C21.2336 11.2221 21.5 10 21.5 10C21.5 10 21.7459 11.2854 22.2098 11.7269C22.6736 12.1684 24.0019 12.5 24.0019 12.5H24Z" fill="#092D53"/>
</g>
<g clip-path="url(#clip2_6765_144194)">
<path d="M23 6C23 6 21.1341 6.47988 20.3234 7.3234C19.5127 8.16692 19 10 19 10C19 10 18.7288 8.16691 17.7452 7.18629C16.7615 6.20268 15 6 15 6C15 6 16.9165 5.60656 17.7452 4.78092C18.5738 3.95529 19 2 19 2C19 2 19.3934 4.05663 20.1356 4.76304C20.8778 5.46945 23.003 6 23.003 6H23Z" fill="#092D53"/>
</g>
<defs>
<clipPath id="clip0_6765_144194">
<rect width="5" height="5" fill="white" transform="translate(11)"/>
</clipPath>
<clipPath id="clip1_6765_144194">
<rect width="5" height="5" fill="white" transform="translate(19 10)"/>
</clipPath>
<clipPath id="clip2_6765_144194">
<rect width="8" height="8" fill="white" transform="translate(15 2)"/>
</clipPath>
</defs>
</svg>
