<svg width="24" height="24" viewBox="0 0 24 24" fill="none" xmlns="http://www.w3.org/2000/svg">
<path d="M12 17.45C11.8667 17.45 11.7377 17.429 11.613 17.387C11.4877 17.3457 11.3833 17.2833 11.3 17.2C10.6 16.5667 10.0417 15.779 9.625 14.837C9.20833 13.8957 9 12.95 9 12C9 11.05 9.20833 10.104 9.625 9.162C10.0417 8.22067 10.6083 7.43333 11.325 6.8C11.425 6.71667 11.5293 6.65 11.638 6.6C11.746 6.55 11.8667 6.525 12 6.525C12.1333 6.525 12.2583 6.55 12.375 6.6C12.4917 6.65 12.6 6.71667 12.7 6.8C13.4 7.43333 13.9583 8.22067 14.375 9.162C14.7917 10.104 15 11.05 15 12C15 12.95 14.7917 13.8957 14.375 14.837C13.9583 15.779 13.3917 16.5667 12.675 17.2C12.575 17.2833 12.471 17.3457 12.363 17.387C12.2543 17.429 12.1333 17.45 12 17.45ZM16 19C15.5333 19 15.0833 18.9583 14.65 18.875C14.2167 18.7917 13.8083 18.6667 13.425 18.5C13.7083 18.3 13.9793 18.05 14.238 17.75C14.496 17.45 14.725 17.1583 14.925 16.875C15.1083 16.9083 15.2877 16.9373 15.463 16.962C15.6377 16.9873 15.8167 17 16 17C17.3833 17 18.5627 16.5123 19.538 15.537C20.5127 14.5623 21 13.3833 21 12C21 10.6 20.5127 9.41667 19.538 8.45C18.5627 7.48333 17.3833 7 16 7C15.8167 7 15.6377 7.00833 15.463 7.025C15.2877 7.04167 15.1083 7.06667 14.925 7.1C14.725 6.81667 14.5 6.525 14.25 6.225C14 5.925 13.725 5.675 13.425 5.475C13.825 5.30833 14.2377 5.18733 14.663 5.112C15.0877 5.03733 15.5333 5 16 5C17.9333 5 19.5833 5.679 20.95 7.037C22.3167 8.39567 23 10.05 23 12C23 13.9333 22.3167 15.5833 20.95 16.95C19.5833 18.3167 17.9333 19 16 19ZM8 19C6.06667 19 4.41667 18.3167 3.05 16.95C1.68333 15.5833 1 13.9333 1 12C1 10.05 1.68333 8.39567 3.05 7.037C4.41667 5.679 6.06667 5 8 5C8.46667 5 8.91267 5.03733 9.338 5.112C9.76267 5.18733 10.175 5.30833 10.575 5.475C10.275 5.675 10 5.925 9.75 6.225C9.5 6.525 9.275 6.81667 9.075 7.1C8.89167 7.06667 8.71267 7.04167 8.538 7.025C8.36267 7.00833 8.18333 7 8 7C6.61667 7 5.43767 7.48333 4.463 8.45C3.48767 9.41667 3 10.6 3 12C3 13.3833 3.48767 14.5623 4.463 15.537C5.43767 16.5123 6.61667 17 8 17C8.18333 17 8.36267 16.9873 8.538 16.962C8.71267 16.9373 8.89167 16.9083 9.075 16.875C9.275 17.1583 9.504 17.45 9.762 17.75C10.0207 18.05 10.2917 18.3 10.575 18.5C10.1917 18.6667 9.78333 18.7917 9.35 18.875C8.91667 18.9583 8.46667 19 8 19Z" fill="#092D53"/>
</svg>
