<svg width="24" height="24" viewBox="0 0 24 24" fill="none" xmlns="http://www.w3.org/2000/svg">
<path d="M12 17.45C11.8667 17.45 11.746 17.429 11.638 17.387C11.5293 17.3457 11.425 17.2833 11.325 17.2C10.6083 16.5667 10.0417 15.779 9.625 14.837C9.20833 13.8957 9 12.95 9 12C9 11.05 9.20833 10.104 9.625 9.162C10.0417 8.22067 10.6 7.43333 11.3 6.8C11.4 6.71667 11.5083 6.65 11.625 6.6C11.7417 6.55 11.8667 6.525 12 6.525C12.1333 6.525 12.2543 6.55 12.363 6.6C12.471 6.65 12.575 6.71667 12.675 6.8C13.3917 7.43333 13.9583 8.22067 14.375 9.162C14.7917 10.104 15 11.05 15 12C15 12.95 14.7917 13.8957 14.375 14.837C13.9583 15.779 13.4 16.5667 12.7 17.2C12.6167 17.2833 12.5127 17.3457 12.388 17.387C12.2627 17.429 12.1333 17.45 12 17.45ZM8 19C6.06667 19 4.41667 18.3167 3.05 16.95C1.68333 15.5833 1 13.9333 1 12C1 10.05 1.68333 8.39567 3.05 7.037C4.41667 5.679 6.06667 5 8 5C8.46667 5 8.91267 5.03733 9.338 5.112C9.76267 5.18733 10.175 5.30833 10.575 5.475C10.275 5.675 10 5.925 9.75 6.225C9.5 6.525 9.275 6.81667 9.075 7.1C8.89167 7.06667 8.71267 7.04167 8.538 7.025C8.36267 7.00833 8.18333 7 8 7C6.61667 7 5.43767 7.48333 4.463 8.45C3.48767 9.41667 3 10.6 3 12C3 13.3833 3.48767 14.5623 4.463 15.537C5.43767 16.5123 6.61667 17 8 17C8.18333 17 8.36267 16.9873 8.538 16.962C8.71267 16.9373 8.89167 16.9083 9.075 16.875C9.275 17.1583 9.504 17.45 9.762 17.75C10.0207 18.05 10.2917 18.3 10.575 18.5C10.1917 18.6667 9.78333 18.7917 9.35 18.875C8.91667 18.9583 8.46667 19 8 19ZM16 19C15.55 19 15.1127 18.9583 14.688 18.875C14.2627 18.7917 13.85 18.6667 13.45 18.5C14.3833 17.8833 15.125 16.9167 15.675 15.6C16.225 14.2833 16.5 13.0833 16.5 12C16.5 10.9167 16.225 9.71667 15.675 8.4C15.125 7.08333 14.3833 6.11667 13.45 5.5C13.85 5.33333 14.2627 5.20833 14.688 5.125C15.1127 5.04167 15.55 5 16 5C17.95 5 19.604 5.679 20.962 7.037C22.3207 8.39567 23 10.05 23 12C23 13.95 22.3207 15.604 20.962 16.962C19.604 18.3207 17.95 19 16 19Z" fill="#092D53"/>
</svg>
