<svg width="24" height="24" viewBox="0 0 24 24" fill="none" xmlns="http://www.w3.org/2000/svg">
<path d="M19.25 15C19.25 15.1989 19.329 15.3897 19.4697 15.5303L22.0555 18.1161C22.18 18.2407 22.25 18.4096 22.25 18.5858C22.25 18.9526 21.9526 19.25 21.5858 19.25H2.41421C2.04738 19.25 1.75 18.9526 1.75 18.5858C1.75 18.4096 1.81998 18.2407 1.94454 18.1161L4.53033 15.5303C4.67098 15.3897 4.75 15.1989 4.75 15V10C4.75 5.99594 7.99594 2.75 12 2.75C16.0041 2.75 19.25 5.99594 19.25 10V15Z" stroke="#25578F" stroke-width="1.5" stroke-linejoin="round"/>
<path d="M15.25 20V19.25H14.5H9.5H8.75V20C8.75 21.7949 10.2051 23.25 12 23.25C13.7949 23.25 15.25 21.7949 15.25 20Z" stroke="#25578F" stroke-width="1.5"/>
<path d="M12 2L12 0.75" stroke="#25578F" stroke-width="1.5" stroke-linecap="round"/>
</svg>
