<svg width="24" height="24" viewBox="0 0 24 24" fill="none" xmlns="http://www.w3.org/2000/svg">
<path d="M11.9999 17.0272L19.2251 18.7475V5.21411L11.9999 6.93441V17.0272Z" fill="#205B97"/>
<path d="M19.2253 5.21411L20.6015 5.90223V18.0594L19.2253 18.7475V5.21411ZM12 17.0272L4.77478 18.7475V5.21411L12 6.93441V17.0272Z" fill="#5193CE"/>
<path d="M4.77468 5.21411L3.39844 5.90223V18.0594L4.77468 18.7475V5.21411Z" fill="#205B97"/>
<path d="M13.8354 21.5L16.5879 20.1238V3.87624L13.8354 2.5L12.9939 11.5223L13.8354 21.5Z" fill="#5193CE"/>
<path d="M10.1646 21.5L7.41211 20.1238V3.87624L10.1646 2.5L11.0061 11.5223L10.1646 21.5Z" fill="#205B97"/>
<path d="M10.1647 2.5H13.8726V21.4617H10.1647V2.5Z" fill="#2E73B7"/>
</svg>
