<svg width="24" height="24" viewBox="0 0 24 24" fill="none" xmlns="http://www.w3.org/2000/svg">
<path d="M4.9294 3.50009H3.95946C3.70571 3.50009 3.5 3.7058 3.5 3.95955V20.0403C3.5 20.2941 3.70571 20.4998 3.95946 20.4998H4.9294C5.18315 20.4998 5.38886 20.2941 5.38886 20.0403V3.95955C5.38886 3.7058 5.18315 3.50009 4.9294 3.50009Z" fill="#FFB200"/>
<path d="M3.5 18.6111H5.38886V20.0405C5.38886 20.2942 5.18315 20.4999 4.9294 20.4999H3.95946C3.70571 20.4999 3.5 20.2942 3.5 20.0405V18.6111Z" fill="#FF0000"/>
<path d="M8.70711 3.50009H7.73717C7.48342 3.50009 7.27771 3.7058 7.27771 3.95955V20.0403C7.27771 20.2941 7.48342 20.4998 7.73717 20.4998H8.70711C8.96086 20.4998 9.16657 20.2941 9.16657 20.0403V3.95955C9.16657 3.7058 8.96086 3.50009 8.70711 3.50009Z" fill="#FFB200"/>
<path d="M12.4846 3.50009H11.5146C11.2609 3.50009 11.0552 3.7058 11.0552 3.95955V20.0403C11.0552 20.2941 11.2609 20.4998 11.5146 20.4998H12.4846C12.7383 20.4998 12.944 20.2941 12.944 20.0403V3.95955C12.944 3.7058 12.7383 3.50009 12.4846 3.50009Z" fill="#FFB200"/>
<path d="M16.2625 3.50009H15.2926C15.0388 3.50009 14.8331 3.7058 14.8331 3.95955V20.0403C14.8331 20.2941 15.0388 20.4998 15.2926 20.4998H16.2625C16.5163 20.4998 16.722 20.2941 16.722 20.0403V3.95955C16.722 3.7058 16.5163 3.50009 16.2625 3.50009Z" fill="#FFB200"/>
<path d="M20.0405 10.1113H19.0705C18.8168 10.1113 18.6111 10.317 18.6111 10.5707V13.4295C18.6111 13.6833 18.8168 13.889 19.0705 13.889H20.0405C20.2942 13.889 20.4999 13.6833 20.4999 13.4295V10.5707C20.4999 10.317 20.2942 10.1113 20.0405 10.1113Z" fill="#FFB200"/>
</svg>
