<svg width="24" height="24" viewBox="0 0 24 24" fill="none" xmlns="http://www.w3.org/2000/svg">
<path d="M7.3125 2.75H14.6893L19.25 7.31066V20.6364C19.25 20.9994 18.9684 21.25 18.6875 21.25H7.3125C7.0316 21.25 6.75 20.9994 6.75 20.6364V3.36364C6.75 3.00057 7.0316 2.75 7.3125 2.75Z" stroke="#092D53" stroke-width="1.5"/>
<path d="M14 2V6.5C14 7.32875 14.6712 8 15.5 8H20L14 2Z" fill="#092D53"/>
<rect x="3" y="12" width="14" height="7" rx="1" fill="#1D73C9"/>
<path d="M7.93011 14.4693C8.00907 14.6709 7.83762 14.865 7.62109 14.865V14.865C7.44715 14.865 7.30752 14.7337 7.22326 14.5816C7.21838 14.5728 7.21335 14.5641 7.20817 14.5555C7.15374 14.4644 7.08603 14.3872 7.00503 14.3239C6.92403 14.2606 6.83164 14.2132 6.72786 14.1815C6.62535 14.1486 6.51461 14.1322 6.39564 14.1322C6.18428 14.1322 5.99697 14.1853 5.8337 14.2916C5.67044 14.3967 5.54261 14.5511 5.45022 14.7549C5.35783 14.9574 5.31163 15.2048 5.31163 15.4972C5.31163 15.7946 5.35783 16.0452 5.45022 16.2489C5.54387 16.4514 5.6717 16.6046 5.8337 16.7084C5.99697 16.8109 6.18365 16.8621 6.39374 16.8621C6.51018 16.8621 6.61902 16.8469 6.72027 16.8166C6.82278 16.7849 6.91454 16.7387 6.99554 16.678C7.07781 16.6172 7.14678 16.5426 7.20247 16.454C7.20772 16.4458 7.21282 16.4375 7.21777 16.4291C7.30572 16.2802 7.44582 16.1509 7.61881 16.1518V16.1518C7.83626 16.153 8.00547 16.3493 7.91884 16.5488C7.90036 16.5913 7.87989 16.6331 7.85743 16.6742C7.7701 16.8362 7.65556 16.9792 7.51381 17.1032C7.37206 17.226 7.20627 17.3222 7.01642 17.3918C6.82658 17.4601 6.61586 17.4943 6.38425 17.4943C6.04253 17.4943 5.73751 17.4152 5.4692 17.257C5.20089 17.0988 4.98953 16.8704 4.83512 16.5717C4.68072 16.273 4.60352 15.9148 4.60352 15.4972C4.60352 15.0782 4.68135 14.7201 4.83702 14.4226C4.99269 14.124 5.20469 13.8955 5.473 13.7373C5.74131 13.5791 6.04506 13.5 6.38425 13.5C6.60067 13.5 6.8019 13.5304 6.98795 13.5911C7.17399 13.6519 7.33979 13.7411 7.48534 13.8588C7.63088 13.9752 7.75049 14.1183 7.84414 14.2879C7.87666 14.3455 7.90531 14.406 7.93011 14.4693Z" fill="white"/>
<path d="M11.0526 14.622C10.8718 14.622 10.7329 14.4705 10.6171 14.3317C10.5871 14.2958 10.5517 14.2635 10.5107 14.2347C10.3803 14.1423 10.2107 14.0961 10.0019 14.0961C9.85507 14.0961 9.72914 14.1183 9.62409 14.1626C9.51905 14.2069 9.43868 14.267 9.38299 14.3429C9.32731 14.4188 9.29883 14.5055 9.29756 14.603C9.29756 14.684 9.31592 14.7542 9.35262 14.8137C9.39059 14.8732 9.44184 14.9238 9.50639 14.9656C9.57094 15.0061 9.64244 15.0403 9.72091 15.0681C9.79938 15.0959 9.87848 15.1194 9.95822 15.1383L10.3227 15.2295C10.4695 15.2636 10.6106 15.3098 10.7461 15.3681C10.8828 15.4263 11.0049 15.4997 11.1125 15.5883C11.2213 15.6769 11.3074 15.7838 11.3707 15.9091C11.4339 16.0344 11.4656 16.1812 11.4656 16.3495C11.4656 16.5774 11.4074 16.778 11.2909 16.9514C11.1745 17.1235 11.0062 17.2583 10.7859 17.3557C10.567 17.4519 10.3018 17.5 9.99049 17.5C9.68801 17.5 9.42539 17.4532 9.20264 17.3595C8.98116 17.2659 8.80777 17.1292 8.68247 16.9495C8.62094 16.8603 8.57342 16.7615 8.53992 16.653C8.48095 16.462 8.64754 16.2926 8.84741 16.2926V16.2926C9.03168 16.2926 9.17033 16.4478 9.27568 16.599C9.2832 16.6098 9.29113 16.6203 9.29946 16.6305C9.37287 16.7204 9.46842 16.7875 9.58612 16.8318C9.70509 16.876 9.83798 16.8982 9.9848 16.8982C10.1379 16.8982 10.2721 16.8754 10.3873 16.8299C10.5037 16.783 10.5948 16.7185 10.6606 16.6362C10.7265 16.5527 10.76 16.4552 10.7613 16.3439C10.76 16.2426 10.7302 16.1591 10.672 16.0933C10.6138 16.0262 10.5322 15.9705 10.4271 15.9262C10.3234 15.8806 10.2019 15.8401 10.0626 15.8047L9.6203 15.6908C9.30009 15.6085 9.04697 15.4839 8.86092 15.3168C8.67614 15.1485 8.58375 14.9251 8.58375 14.6467C8.58375 14.4176 8.64577 14.217 8.7698 14.0449C8.8951 13.8727 9.06532 13.7392 9.28048 13.6443C9.49563 13.5481 9.73927 13.5 10.0114 13.5C10.2873 13.5 10.529 13.5481 10.7366 13.6443C10.9454 13.7392 11.1093 13.8715 11.2283 14.0411C11.2789 14.1126 11.319 14.1888 11.3488 14.2695C11.4172 14.455 11.2503 14.622 11.0526 14.622V14.622Z" fill="white"/>
<path d="M12.2987 13.5532C12.4548 13.5532 12.5933 13.6533 12.6423 13.8015L13.5658 16.5945C13.5695 16.6058 13.5801 16.6134 13.592 16.6134V16.6134C13.6039 16.6134 13.6144 16.6058 13.6182 16.5945L14.5397 13.8021C14.5888 13.6535 14.7276 13.5532 14.8841 13.5532V13.5532C15.1342 13.5532 15.3093 13.8004 15.2261 14.0364L14.1703 17.0312C14.0837 17.2769 13.8516 17.4411 13.5911 17.4411V17.4411C13.3306 17.4411 13.0984 17.2767 13.0119 17.031L11.9573 14.0353C11.8744 13.7998 12.0491 13.5532 12.2987 13.5532V13.5532Z" fill="white"/>
</svg>
