<svg width="24" height="24" viewBox="0 0 24 24" fill="none" xmlns="http://www.w3.org/2000/svg">
<path d="M19.8143 10.322L11.9869 14.7615L3.66036 10.0313L3.26636 10.2427V13.6781L11.9869 18.6461L19.8143 14.2065V16.0299L11.9869 20.4694L3.66036 15.7392L3.26636 15.9507V16.532L11.9869 21.5L20.7337 16.532V13.0967L20.3397 12.8852L11.9869 17.6155L4.18566 13.1759V11.379L11.9869 15.7921L20.7337 10.8241V7.44159L20.2871 7.20376L11.9869 11.9075L4.60591 7.70585L11.9869 3.5306L18.0807 6.96593L18.6323 6.67525V6.25244L11.9869 2.5L3.26636 7.44159V7.97011L11.9869 12.9381L19.8143 8.49862V10.322Z" fill="#FF3621"/>
</svg>
