<svg width="24" height="24" viewBox="0 0 24 24" fill="none" xmlns="http://www.w3.org/2000/svg">
<path fill-rule="evenodd" clip-rule="evenodd" d="M19.006 6.9534C19.0063 6.95339 19.0056 6.95676 19.003 6.96355C19.0043 6.9568 19.0056 6.95341 19.006 6.9534ZM18.9848 7C18.9634 6.96295 18.9219 6.90368 18.8439 6.82179C18.6248 6.59156 18.2133 6.29323 17.5517 5.9992C16.2336 5.41337 14.2724 5 12 5C9.72757 5 7.76643 5.41337 6.44832 5.9992C5.78673 6.29323 5.37516 6.59156 5.15605 6.82179C5.07812 6.90368 5.03659 6.96294 5.01516 7C5.03659 7.03706 5.07812 7.09632 5.15605 7.17821C5.37516 7.40844 5.78673 7.70677 6.44832 8.0008C7.76643 8.58663 9.72757 9 12 9C14.2724 9 16.2336 8.58663 17.5517 8.0008C18.2133 7.70677 18.6248 7.40844 18.8439 7.17821C18.9219 7.09632 18.9634 7.03706 18.9848 7ZM4.99402 6.9534C4.99436 6.9534 4.99567 6.9568 4.99699 6.96355C4.99435 6.95676 4.99369 6.95339 4.99402 6.9534ZM12 11C14.8273 11 17.35 10.4206 19 9.51437V11V11.9707C18.9867 12.0007 18.9474 12.0695 18.8439 12.1782C18.6248 12.4084 18.2133 12.7068 17.5517 13.0008C16.2336 13.5866 14.2724 14 12 14C9.72757 14 7.76643 13.5866 6.44832 13.0008C5.78673 12.7068 5.37516 12.4084 5.15605 12.1782C5.05262 12.0695 5.01331 12.0007 5 11.9707V11V9.51437C6.64996 10.4206 9.17273 11 12 11ZM12 3C16.9706 3 21 4.79086 21 7V12V17C21 19.2091 16.9706 21 12 21C7.02944 21 3 19.2091 3 17V12V7C3 4.79086 7.02944 3 12 3ZM5 14.5144V16V16.9707C5.01331 17.0007 5.05262 17.0695 5.15605 17.1782C5.37516 17.4084 5.78673 17.7068 6.44832 18.0008C7.76643 18.5866 9.72757 19 12 19C14.2724 19 16.2336 18.5866 17.5517 18.0008C18.2133 17.7068 18.6248 17.4084 18.8439 17.1782C18.9474 17.0695 18.9867 17.0007 19 16.9707V16V14.5144C17.35 15.4206 14.8273 16 12 16C9.17273 16 6.64996 15.4206 5 14.5144ZM19.006 11.9534C19.0063 11.9534 19.0056 11.9568 19.003 11.9636C19.0043 11.9568 19.0056 11.9534 19.006 11.9534ZM4.99402 11.9534C4.99436 11.9534 4.99567 11.9568 4.99699 11.9635C4.99435 11.9568 4.99369 11.9534 4.99402 11.9534ZM19.0058 16.9553C19.0061 16.954 19.0061 16.9534 19.006 16.9534C19.0056 16.9534 19.0043 16.9568 19.003 16.9636C19.0045 16.9597 19.0053 16.957 19.0058 16.9553ZM4.99402 16.9534C4.99436 16.9534 4.99567 16.9568 4.99699 16.9635C4.99435 16.9568 4.99369 16.9534 4.99402 16.9534Z" fill="#092D53"/>
</svg>
