<svg width="24" height="24" viewBox="0 0 24 24" fill="none" xmlns="http://www.w3.org/2000/svg">
<path d="M10.7906 8.17498L5.2561 7.19998V14.4045C5.25617 14.4827 5.27165 14.5602 5.30166 14.6325C5.33167 14.7048 5.37563 14.7705 5.43102 14.8258C5.48641 14.8811 5.55215 14.9249 5.62449 14.9548C5.69682 14.9847 5.77434 15 5.8526 15H15.4026C15.481 15.0002 15.5586 14.9849 15.631 14.9551C15.7035 14.9253 15.7693 14.8814 15.8248 14.8261C15.8803 14.7708 15.9244 14.7051 15.9544 14.6328C15.9845 14.5604 16 14.4828 16.0001 14.4045V11.75L10.7906 8.17498Z" fill="#185C37"/>
<path d="M10.7906 2H5.8526C5.77434 1.99993 5.69682 2.01529 5.62449 2.04518C5.55215 2.07507 5.48641 2.11891 5.43102 2.17421C5.37563 2.22951 5.33167 2.29517 5.30166 2.36746C5.27165 2.43974 5.25617 2.51723 5.2561 2.5955V5.25L10.7906 8.5L13.7211 9.475L16.0001 8.5V5.25L10.7906 2Z" fill="#21A366"/>
<path d="M5.2561 5.25H10.7906V8.5H5.2561V5.25Z" fill="#107C41"/>
<path opacity="0.1" d="M9.2171 4.60001H5.2561V12.725H9.2171C9.37494 12.7242 9.5261 12.6613 9.63785 12.5498C9.7496 12.4383 9.81292 12.2873 9.8141 12.1295V5.19551C9.81292 5.03768 9.7496 4.88667 9.63785 4.7752C9.5261 4.66374 9.37494 4.60079 9.2171 4.60001Z" fill="black"/>
<path opacity="0.2" d="M8.8916 4.92502H5.2561V13.05H8.8916C9.04944 13.0492 9.2006 12.9863 9.31235 12.8748C9.4241 12.7634 9.48742 12.6123 9.4886 12.4545V5.52052C9.48742 5.36269 9.4241 5.21168 9.31235 5.10021C9.2006 4.98875 9.04944 4.9258 8.8916 4.92502Z" fill="black"/>
<path opacity="0.2" d="M8.8916 4.92502H5.2561V12.4H8.8916C9.04944 12.3992 9.2006 12.3363 9.31235 12.2248C9.4241 12.1134 9.48742 11.9623 9.4886 11.8045V5.52052C9.48742 5.36269 9.4241 5.21168 9.31235 5.10021C9.2006 4.98875 9.04944 4.9258 8.8916 4.92502Z" fill="black"/>
<path opacity="0.2" d="M8.5661 4.92502H5.2561V12.4H8.5661C8.72394 12.3992 8.8751 12.3363 8.98685 12.2248C9.0986 12.1134 9.16192 11.9623 9.1631 11.8045V5.52052C9.16192 5.36269 9.0986 5.21168 8.98685 5.10021C8.8751 4.98875 8.72394 4.9258 8.5661 4.92502Z" fill="black"/>
<path d="M2.597 4.92502H8.566C8.72412 4.92489 8.87582 4.98754 8.98776 5.0992C9.0997 5.21086 9.16274 5.3624 9.163 5.52052V11.4795C9.16274 11.6376 9.0997 11.7892 8.98776 11.9008C8.87582 12.0125 8.72412 12.0752 8.566 12.075H2.597C2.51869 12.0752 2.44112 12.0598 2.36873 12.03C2.29634 12.0001 2.23054 11.9563 2.17509 11.901C2.11965 11.8457 2.07565 11.78 2.04561 11.7077C2.01556 11.6354 2.00007 11.5578 2 11.4795V5.52052C2.00007 5.44221 2.01556 5.36468 2.04561 5.29236C2.07565 5.22004 2.11965 5.15436 2.17509 5.09905C2.23054 5.04375 2.29634 4.99991 2.36873 4.97005C2.44112 4.94019 2.51869 4.92489 2.597 4.92502Z" fill="url(#paint0_linear_3443_114062)"/>
<path d="M3.84998 10.4365L5.10548 8.49454L3.95548 6.56354H4.87898L5.50648 7.80004C5.56448 7.91704 5.60648 8.00404 5.62548 8.06204H5.63398C5.67498 7.96804 5.71848 7.87754 5.76398 7.78904L6.43498 6.56554H7.28498L6.10548 8.48554L7.31498 10.438H6.41048L5.68548 9.08254C5.65181 9.02426 5.62321 8.9632 5.59998 8.90004H5.58798C5.56683 8.96158 5.53865 9.02047 5.50398 9.07554L4.75748 10.4365H3.84998Z" fill="white"/>
<path d="M15.403 2H10.7905V5.25H16V2.5955C16 2.51719 15.9845 2.43966 15.9544 2.36734C15.9244 2.29503 15.8804 2.22934 15.8249 2.17403C15.7695 2.11873 15.7037 2.0749 15.6313 2.04503C15.5589 2.01517 15.4813 1.99987 15.403 2Z" fill="#33C481"/>
<path d="M10.7905 8.5H16V11.75H10.7905V8.5Z" fill="#107C41"/>
<path d="M12 9.5H17.7929L21.5 13.2071V22C21.5 22.2761 21.2761 22.5 21 22.5H12C11.7239 22.5 11.5 22.2761 11.5 22V10C11.5 9.72386 11.7239 9.5 12 9.5Z" fill="white" stroke="#092D53"/>
<path d="M17 9V12.75C17 13.4406 17.5594 14 18.25 14H22L17 9Z" fill="#092D53"/>
<rect x="10" y="16" width="9" height="4" rx="1" fill="#1D73C9"/>
<path d="M13.3753 17.419C13.4198 17.5326 13.3231 17.642 13.2011 17.642C13.103 17.642 13.0243 17.568 12.9768 17.4823C12.9741 17.4773 12.9712 17.4724 12.9683 17.4676C12.9376 17.4162 12.8995 17.3727 12.8538 17.337C12.8081 17.3013 12.756 17.2746 12.6975 17.2568C12.6398 17.2382 12.5773 17.2289 12.5103 17.2289C12.3911 17.2289 12.2855 17.2589 12.1935 17.3188C12.1014 17.378 12.0294 17.4651 11.9773 17.58C11.9252 17.6941 11.8992 17.8336 11.8992 17.9984C11.8992 18.1661 11.9252 18.3073 11.9773 18.4222C12.0301 18.5363 12.1022 18.6227 12.1935 18.6812C12.2855 18.739 12.3908 18.7679 12.5092 18.7679C12.5748 18.7679 12.6362 18.7593 12.6933 18.7422C12.7511 18.7243 12.8028 18.6983 12.8484 18.6641C12.8948 18.6298 12.9337 18.5877 12.9651 18.5378C12.9681 18.5332 12.9709 18.5285 12.9737 18.5238C13.0233 18.4398 13.1023 18.3669 13.1998 18.3674C13.3224 18.3681 13.4178 18.4788 13.3689 18.5912C13.3585 18.6152 13.347 18.6388 13.3343 18.6619C13.2851 18.7532 13.2205 18.8339 13.1406 18.9038C13.0607 18.973 12.9672 19.0272 12.8602 19.0665C12.7532 19.105 12.6344 19.1242 12.5038 19.1242C12.3112 19.1242 12.1393 19.0797 11.988 18.9905C11.8368 18.9013 11.7176 18.7725 11.6306 18.6041C11.5435 18.4358 11.5 18.2338 11.5 17.9984C11.5 17.7622 11.5439 17.5603 11.6316 17.3927C11.7194 17.2243 11.8389 17.0955 11.9901 17.0063C12.1414 16.9171 12.3126 16.8726 12.5038 16.8726C12.6258 16.8726 12.7393 16.8897 12.8442 16.9239C12.949 16.9582 13.0425 17.0085 13.1246 17.0748C13.2066 17.1405 13.274 17.2211 13.3268 17.3167C13.3451 17.3492 13.3613 17.3833 13.3753 17.419Z" fill="white"/>
<path d="M15.1355 17.505C15.0336 17.505 14.9553 17.4197 14.89 17.3414C14.8731 17.3212 14.8531 17.3029 14.83 17.2867C14.7565 17.2346 14.6609 17.2086 14.5432 17.2086C14.4604 17.2086 14.3894 17.2211 14.3302 17.2461C14.271 17.271 14.2257 17.3049 14.1943 17.3477C14.1629 17.3905 14.1469 17.4394 14.1461 17.4943C14.1461 17.54 14.1565 17.5796 14.1772 17.6131C14.1986 17.6467 14.2275 17.6752 14.2639 17.6987C14.3003 17.7216 14.3406 17.7408 14.3848 17.7565C14.429 17.7722 14.4736 17.7854 14.5186 17.7961L14.724 17.8475C14.8068 17.8668 14.8864 17.8928 14.9627 17.9256C15.0398 17.9584 15.1086 17.9998 15.1692 18.0498C15.2306 18.0997 15.2791 18.16 15.3148 18.2306C15.3505 18.3013 15.3683 18.384 15.3683 18.4789C15.3683 18.6073 15.3355 18.7204 15.2698 18.8182C15.2042 18.9152 15.1093 18.9912 14.9852 19.0461C14.8617 19.1003 14.7123 19.1275 14.5368 19.1275C14.3662 19.1275 14.2182 19.1011 14.0926 19.0483C13.9678 18.9955 13.87 18.9184 13.7994 18.8171C13.7647 18.7668 13.7379 18.7111 13.719 18.65C13.6858 18.5423 13.7797 18.4468 13.8924 18.4468C13.9963 18.4468 14.0744 18.5343 14.1338 18.6196C14.138 18.6256 14.1425 18.6316 14.1472 18.6373C14.1886 18.688 14.2425 18.7258 14.3088 18.7507C14.3759 18.7757 14.4508 18.7882 14.5336 18.7882C14.6199 18.7882 14.6955 18.7754 14.7604 18.7497C14.8261 18.7233 14.8774 18.6869 14.9145 18.6405C14.9516 18.5934 14.9705 18.5385 14.9713 18.4757C14.9705 18.4186 14.9538 18.3715 14.921 18.3344C14.8881 18.2966 14.8421 18.2652 14.7829 18.2403C14.7244 18.2146 14.6559 18.1917 14.5774 18.1718L14.3281 18.1076C14.1476 18.0612 14.0049 17.9909 13.9 17.8967C13.7958 17.8018 13.7438 17.6759 13.7438 17.519C13.7438 17.3898 13.7787 17.2767 13.8486 17.1797C13.9193 17.0827 14.0152 17.0074 14.1365 16.9539C14.2578 16.8997 14.3951 16.8726 14.5485 16.8726C14.7041 16.8726 14.8403 16.8997 14.9573 16.9539C15.0751 17.0074 15.1675 17.082 15.2345 17.1776C15.263 17.2179 15.2857 17.2608 15.3025 17.3064C15.341 17.4109 15.2469 17.505 15.1355 17.505Z" fill="white"/>
<path d="M15.8379 16.9025C15.9259 16.9025 16.004 16.9589 16.0316 17.0425L16.5523 18.617C16.5544 18.6234 16.5603 18.6277 16.567 18.6277C16.5737 18.6277 16.5797 18.6234 16.5818 18.617L17.1013 17.0429C17.1289 16.9591 17.2072 16.9025 17.2954 16.9025C17.4364 16.9025 17.5351 17.0419 17.4882 17.1749L16.893 18.8632C16.8442 19.0017 16.7134 19.0943 16.5665 19.0943C16.4197 19.0943 16.2888 19.0016 16.24 18.8631L15.6455 17.1743C15.5988 17.0416 15.6972 16.9025 15.8379 16.9025Z" fill="white"/>
<defs>
<linearGradient id="paint0_linear_3443_114062" x1="3.247" y1="4.45702" x2="7.916" y2="12.543" gradientUnits="userSpaceOnUse">
<stop stop-color="#18884F"/>
<stop offset="0.5" stop-color="#117E43"/>
<stop offset="1" stop-color="#0B6631"/>
</linearGradient>
</defs>
</svg>
