<svg width="24" height="24" viewBox="0 0 24 24" fill="none" xmlns="http://www.w3.org/2000/svg">
<path d="M14.1591 2.5L18.9091 7.25L16.5341 7.68182L14.1591 7.25L13.7273 4.875L14.1591 2.5Z" fill="#188038"/>
<path d="M14.1591 7.25V2.5H6.3864C5.67066 2.5 5.09094 3.07972 5.09094 3.79545V20.2045C5.09094 20.9203 5.67066 21.5 6.3864 21.5H17.6137C18.3294 21.5 18.9091 20.9203 18.9091 20.2045V7.25H14.1591Z" fill="#34A853"/>
<path d="M7.68188 9.84091V16.1023H16.3182V9.84091H7.68188ZM11.4603 15.0227H8.76143V13.5114H11.4603V15.0227ZM11.4603 12.4318H8.76143V10.9205H11.4603V12.4318ZM15.2387 15.0227H12.5398V13.5114H15.2387V15.0227ZM15.2387 12.4318H12.5398V10.9205H15.2387V12.4318Z" fill="white"/>
</svg>
