<svg width="24" height="24" viewBox="0 0 24 24" fill="none" xmlns="http://www.w3.org/2000/svg">
<path d="M6.79875 19.7768L2.66566 12.6179C2.44478 12.2356 2.44478 11.7641 2.66566 11.3818L6.79875 4.22321C7.01933 3.84113 7.42664 3.60571 7.8675 3.60512H16.1375C16.5769 3.6072 16.9822 3.84262 17.2018 4.22321L21.3343 11.3818C21.5552 11.7641 21.5552 12.2356 21.3343 12.6179L17.2013 19.7768C16.9807 20.1589 16.5734 20.3943 16.1325 20.3949H7.86453C7.42427 20.3934 7.01844 20.158 6.79786 19.7768H6.79875Z" fill="#4386FA"/>
<path opacity="0.1" d="M14.582 9.69463C14.582 9.69463 15.7309 12.4505 14.1646 14.0127C12.5983 15.5748 9.74622 14.575 9.74622 14.575L15.5477 20.3925H16.1367C16.5779 20.3919 16.9852 20.1562 17.2055 19.7744L19.9415 15.0369L14.582 9.69463Z" fill="black"/>
<path d="M15.9388 15.3338L14.672 14.064C14.6582 14.0499 14.6424 14.0379 14.6251 14.0284C15.1639 13.3344 15.4179 12.461 15.3352 11.5862C15.2525 10.7114 14.8394 9.90111 14.1801 9.32031C13.5208 8.7395 12.6648 8.43193 11.7866 8.46025C10.9084 8.48856 10.074 8.85064 9.45345 9.47271C8.83291 10.0948 8.47288 10.93 8.44672 11.8083C8.42056 12.6866 8.73024 13.5418 9.31267 14.1997C9.89509 14.8576 10.7064 15.2687 11.5814 15.3492C12.4564 15.4298 13.3291 15.1737 14.0218 14.6331C14.0309 14.6495 14.0422 14.6645 14.0554 14.6777L15.3251 15.9474C15.3624 15.9847 15.413 16.0056 15.4657 16.0056C15.5184 16.0056 15.569 15.9847 15.6063 15.9474L15.9388 15.6149C15.976 15.5776 15.9969 15.5271 15.9969 15.4743C15.9969 15.4216 15.976 15.3711 15.9388 15.3338ZM11.8933 14.5126C11.3795 14.5127 10.8772 14.3604 10.45 14.075C10.0227 13.7895 9.68974 13.3838 9.49309 12.9092C9.29644 12.4345 9.24497 11.9122 9.3452 11.4083C9.44542 10.9043 9.69283 10.4414 10.0561 10.0781C10.4194 9.71483 10.8823 9.46742 11.3862 9.3672C11.8902 9.26698 12.4125 9.31844 12.8872 9.51509C13.3618 9.71174 13.7675 10.0447 14.0529 10.472C14.3384 10.8992 14.4907 11.4015 14.4906 11.9153C14.4905 12.6041 14.2169 13.2647 13.7298 13.7518C13.2427 14.2389 12.5821 14.5125 11.8933 14.5126ZM10.2328 11.7766V12.8501C10.3982 13.1419 10.6375 13.3854 10.9269 13.5552V11.7701L10.2328 11.7766ZM11.5317 10.8866V13.7876C11.7611 13.8299 11.9963 13.8299 12.2258 13.7876V10.8866H11.5317ZM13.5397 12.8477V12.2118H12.8462V13.5478C13.1353 13.3784 13.3746 13.1359 13.5403 12.8448L13.5397 12.8477Z" fill="white"/>
</svg>
