<svg width="24" height="24" viewBox="0 0 24 24" fill="none" xmlns="http://www.w3.org/2000/svg">
<path d="M14.5197 11.3043L10.3128 12.6762L6.6555 14.2916L5.63089 14.5624C5.37113 14.8093 5.09545 15.0601 4.80189 15.3155C4.47918 15.5963 4.1757 15.8508 3.94494 16.0348C3.68798 16.2396 3.30591 16.6187 3.11062 16.8618C2.82008 17.2234 2.59288 17.6091 2.49519 17.9057C2.31944 18.4393 2.40507 18.9797 2.74402 19.4785C3.177 20.1157 4.03895 20.763 5.0414 21.2037C5.55275 21.4285 6.41564 21.7183 7.06268 21.8817C8.14097 22.154 10.225 22.4498 11.3727 22.4938C11.6055 22.5027 11.9153 22.5019 11.9296 22.4924C11.9548 22.4758 12.1334 22.1375 12.3407 21.714C13.0461 20.2731 13.5564 18.9223 13.8311 17.7686C13.9974 17.0701 14.127 16.1386 14.211 15.0341C14.2345 14.7247 14.243 13.6929 14.225 13.3422C14.1955 12.7715 14.1453 12.3063 14.0646 11.8498C14.0528 11.7829 14.0484 11.7241 14.0546 11.7188C14.0663 11.7087 14.1061 11.696 14.6228 11.5458L14.5197 11.3043ZM13.5583 11.8685C13.5965 11.8685 13.6982 12.8434 13.7246 13.4619C13.7302 13.5934 13.7291 13.6775 13.7213 13.6775C13.6962 13.6775 13.1825 13.3759 12.8184 13.1472C12.5005 12.9475 11.8971 12.5466 11.8012 12.4713C11.7709 12.4475 11.7741 12.4463 12.034 12.3568C12.4763 12.2045 13.5249 11.8685 13.5583 11.8685ZM11.4153 12.5717C11.4424 12.5717 11.5165 12.6125 11.6914 12.7221C12.3475 13.1331 13.2361 13.6277 13.6168 13.7939C13.7349 13.8455 13.7484 13.8255 13.4765 14.0102C12.8968 14.4038 12.1762 14.7908 11.2915 15.1838C11.1373 15.2523 11.0067 15.3082 11.0014 15.3082C10.9962 15.3082 11.0134 15.23 11.0394 15.1339C11.2537 14.3411 11.3746 13.5408 11.378 12.8991C11.3797 12.5817 11.3798 12.58 11.4099 12.5724C11.4114 12.572 11.4135 12.5717 11.4153 12.5717ZM10.9742 12.74C10.9931 12.7591 10.9794 13.4704 10.9562 13.6642C10.9005 14.1291 10.8096 14.5591 10.6641 15.0481C10.6294 15.1649 10.5968 15.2656 10.5916 15.2716C10.579 15.2863 10.144 14.8625 9.99944 14.6948C9.75241 14.4082 9.55699 14.1236 9.41462 13.8432C9.34226 13.7006 9.22688 13.4192 9.23764 13.4114C9.2865 13.3759 10.9622 12.7281 10.9742 12.74ZM8.89633 13.5591C8.90024 13.5595 8.90328 13.5605 8.90498 13.5624C8.91125 13.5693 8.9334 13.621 8.95421 13.6775C9.05552 13.9527 9.28333 14.3614 9.48115 14.6229C9.69713 14.9084 9.97872 15.2126 10.2143 15.4147C10.29 15.4795 10.3606 15.5401 10.3707 15.5491C10.3909 15.5669 10.3977 15.5639 9.87902 15.7606C9.27794 15.9886 8.62331 16.2169 7.87172 16.4599C7.5853 16.5525 7.34289 16.6307 7.33347 16.6342C7.30484 16.6448 7.31362 16.6272 7.39734 16.4965C7.77079 15.9135 8.33653 14.7729 8.65281 13.9662C8.70768 13.8263 8.75988 13.6862 8.76925 13.6549C8.783 13.6088 8.79656 13.5932 8.83977 13.5737C8.86368 13.5629 8.88459 13.5579 8.89633 13.5591ZM8.2596 13.8219C8.26807 13.8293 8.10684 14.1698 7.94823 14.4792C7.64059 15.0793 7.30142 15.6699 6.8511 16.3907C6.7734 16.5151 6.7018 16.6288 6.69209 16.6429C6.6761 16.6661 6.66954 16.6584 6.62023 16.5604C6.51243 16.346 6.42211 16.0754 6.37539 15.8238C6.32915 15.5749 6.33702 15.1438 6.39269 14.8764C6.43405 14.6778 6.43222 14.6822 6.52576 14.6342C6.93014 14.427 8.24643 13.8103 8.2596 13.8219ZM13.7439 14.0448V14.1798C13.7432 14.8892 13.6675 15.8604 13.5576 16.569C13.5383 16.6934 13.5216 16.796 13.5204 16.7972C13.5191 16.7985 13.4295 16.7722 13.3214 16.7387C12.8441 16.5905 12.3266 16.3691 11.8597 16.1133C11.5505 15.9438 11.1033 15.6694 11.1159 15.6568C11.1193 15.6534 11.251 15.5836 11.4086 15.5018C12.0329 15.1778 12.6293 14.8284 13.1478 14.4819C13.3423 14.3519 13.6334 14.1414 13.698 14.0847L13.7439 14.0448ZM5.85843 14.9849C5.87139 14.9842 5.8681 15.0088 5.84778 15.1259C5.83366 15.2073 5.81769 15.3611 5.81186 15.4672C5.78628 15.9322 5.86169 16.2753 6.09263 16.7447C6.15683 16.8752 6.20706 16.984 6.2044 16.9862C6.18128 17.0055 4.07845 17.6209 3.41734 17.8019C3.22136 17.8555 3.05008 17.9028 3.0361 17.907C3.01316 17.9139 3.01112 17.9089 3.01947 17.8551C3.09188 17.3886 3.44774 16.7763 3.94494 16.2623C4.2755 15.9206 4.54017 15.7182 4.99018 15.4612C5.31314 15.2769 5.81473 15.0001 5.85178 14.9862C5.85427 14.9853 5.85658 14.985 5.85843 14.9849ZM10.8185 15.8731C10.8205 15.8707 10.8984 15.9124 10.9914 15.9662C11.6707 16.359 12.6185 16.7275 13.4266 16.9123L13.4997 16.929L13.3993 16.9848C12.9772 17.2191 11.587 17.7975 10.1671 18.3301C9.95983 18.4079 9.75758 18.4841 9.71801 18.4998C9.67844 18.5155 9.64615 18.5262 9.64615 18.5231C9.64615 18.52 9.70472 18.4073 9.77656 18.2729C10.1752 17.5276 10.573 16.6219 10.7772 15.9935C10.798 15.9294 10.8165 15.8755 10.8185 15.8731ZM10.3128 16.0387C10.315 16.0409 10.2902 16.1077 10.2576 16.1865C9.98048 16.8565 9.61742 17.5875 9.15448 18.4087C9.03666 18.6176 8.93735 18.7882 8.93359 18.7879C8.92981 18.7875 8.83399 18.7309 8.72068 18.6615C8.04637 18.2487 7.44975 17.7405 7.05802 17.2463L7.00213 17.1765L7.29288 17.0966C8.32996 16.8125 9.20945 16.5087 10.0839 16.1319C10.2078 16.0785 10.3106 16.0366 10.3128 16.0387ZM13.4538 17.1352C13.4553 17.1355 13.4558 17.1366 13.4558 17.1379C13.4558 17.2086 13.2954 17.8627 13.1618 18.3361C13.0496 18.7333 12.9555 19.0439 12.7812 19.5943C12.7042 19.8373 12.6381 20.0357 12.6341 20.0347C12.6302 20.0337 12.6117 20.0301 12.5929 20.0267C11.6482 19.8558 10.8021 19.6174 10.0094 19.2989C9.78767 19.2098 9.46745 19.0679 9.45054 19.0514C9.44482 19.0458 9.63631 18.9555 9.87569 18.8511C11.3233 18.2195 12.8233 17.5002 13.3361 17.1918C13.3977 17.1547 13.4434 17.1331 13.4538 17.1352ZM6.20307 17.3834C6.21083 17.3907 5.80589 17.9704 5.24034 18.7619C5.04377 19.0371 4.81286 19.3613 4.72737 19.4825C4.64188 19.6037 4.51256 19.7955 4.43928 19.909L4.30555 20.1152L4.16317 19.9955C3.9961 19.8552 3.70368 19.5574 3.57103 19.392C3.29805 19.0517 3.11309 18.6936 3.04009 18.3647C3.00639 18.2129 3.0054 18.1355 3.03743 18.1259C3.08372 18.1119 3.93295 17.912 4.72937 17.7274C5.17175 17.6248 5.6832 17.5047 5.86641 17.4606C6.04963 17.4164 6.20128 17.3817 6.20307 17.3834ZM6.61025 17.5391L6.71271 17.6535C7.17079 18.1638 7.63665 18.5446 8.20505 18.8731C8.3054 18.931 8.38189 18.9815 8.37537 18.9855C8.35171 19.0001 6.40985 19.6906 5.51179 20.0034C5.00532 20.1799 4.58928 20.3238 4.58698 20.3235C4.58469 20.3231 4.556 20.3044 4.52378 20.2816L4.46523 20.2396L4.55704 20.1072C4.85501 19.6756 5.22939 19.201 6.04872 18.215L6.61025 17.5391ZM9.14782 19.3528C9.15007 19.35 9.29204 19.4003 9.46385 19.4645C9.87799 19.6194 10.203 19.7204 10.6428 19.8305C11.183 19.9657 11.9636 20.1009 12.4259 20.1398C12.4969 20.1458 12.5331 20.1539 12.5217 20.1611C12.5002 20.1747 12.0322 20.3311 11.6881 20.4392C11.1418 20.611 9.47241 21.1041 8.11124 21.4958C7.85873 21.5684 7.64284 21.6298 7.63153 21.6322C7.60105 21.6385 7.49448 21.6105 7.49448 21.5962C7.49448 21.5895 7.5708 21.4929 7.66347 21.382C8.12099 20.8348 8.5755 20.2235 8.95488 19.6455C9.05864 19.4874 9.14558 19.3556 9.14782 19.3528ZM8.58562 19.3687C8.58971 19.3728 8.36418 19.7339 7.96753 20.3587C7.80005 20.6225 7.61013 20.9228 7.54504 21.0261C7.47995 21.1293 7.38458 21.2861 7.33347 21.3754L7.24032 21.5377L7.19308 21.5251C7.0791 21.4942 6.27508 21.2102 6.06269 21.1259C5.79945 21.0214 5.52512 20.8952 5.32284 20.7859C5.07006 20.6493 4.74947 20.4465 4.77461 20.4386C4.78184 20.4363 5.21682 20.3172 5.74067 20.1744C7.13422 19.7946 7.90504 19.5764 8.41063 19.4186C8.5051 19.3892 8.58381 19.3669 8.58562 19.3687ZM12.5437 20.2969C12.5467 20.2962 12.5481 20.2962 12.5483 20.2969C12.5615 20.3298 12.0456 21.7587 11.857 22.2117C11.8148 22.3131 11.7992 22.3377 11.7772 22.3368C11.7238 22.3344 10.9758 22.2298 10.5231 22.1611C9.73051 22.0408 8.40298 21.809 8.06799 21.7326L7.99015 21.7153L8.46519 21.6082C9.48341 21.3788 9.97241 21.2558 10.4685 21.1039C11.0942 20.9124 11.7137 20.6736 12.3394 20.3827C12.4383 20.3367 12.5227 20.3014 12.5437 20.2969Z" fill="url(#paint0_linear_3443_114047)"/>
<path d="M10.1841 1.50012C10.1138 1.49191 8.98473 1.89869 8.25933 2.1934C7.27642 2.59273 6.51326 2.97534 6.04245 3.30583C5.86721 3.42884 5.64685 3.65007 5.61464 3.73497C5.60259 3.76673 5.59694 3.80386 5.59668 3.84208L6.02382 4.24527L7.03712 4.56862L9.45094 4.99976L12.2101 5.47414L12.238 5.23728C12.2297 5.23596 12.2218 5.2346 12.2134 5.23329L11.8501 5.17607L11.7763 5.04633C11.4013 4.38464 10.9869 3.56583 10.7463 3.01175C10.5601 2.58264 10.3812 2.08832 10.2819 1.73033C10.223 1.51771 10.2169 1.50394 10.1841 1.50012ZM10.1309 1.66379C10.1337 1.66329 10.1351 1.66327 10.1356 1.66379C10.1378 1.66646 10.1506 1.75521 10.1635 1.86073C10.2178 2.30514 10.3173 2.73614 10.4729 3.20004C10.5902 3.54961 10.5918 3.52908 10.4523 3.49012C10.1278 3.39958 8.67416 3.15005 7.62261 3.00443C7.45317 2.98097 7.31215 2.9601 7.3099 2.95786C7.29655 2.94451 8.06826 2.54019 8.41036 2.38102C8.84912 2.17688 10.0439 1.67944 10.1309 1.66379ZM7.06706 3.08693L7.19014 3.12885C7.86526 3.35866 9.55748 3.68191 10.4928 3.75958C10.5984 3.76835 10.6871 3.77775 10.6898 3.78021C10.6925 3.78267 10.6028 3.83057 10.4908 3.88666C10.0396 4.11269 9.54299 4.3882 9.19944 4.60322C9.09855 4.66637 9.00602 4.7173 8.99385 4.71633C8.98168 4.71536 8.91515 4.70467 8.84548 4.69304L8.71841 4.67242L8.39905 4.36237C7.83841 3.81975 7.40069 3.39997 7.23139 3.24129L7.06706 3.08693ZM6.94198 3.18673L7.38908 3.74495C7.63521 4.05198 7.88188 4.35668 7.93664 4.42225C7.99141 4.48782 8.03378 4.54339 8.03112 4.54534C8.01843 4.55462 7.38312 4.43092 7.04643 4.35372C6.70079 4.27447 6.55783 4.23653 6.34385 4.1681L6.16953 4.11221L6.17019 4.06896C6.17241 3.85453 6.44268 3.53825 6.90139 3.21468L6.94198 3.18673ZM10.7497 3.94721C10.7631 3.94824 10.7772 3.9755 10.8169 4.06231C10.9253 4.29987 11.2629 4.94374 11.3445 5.06829C11.3713 5.1093 11.4139 5.11205 10.9659 5.03968C9.88909 4.86575 9.54074 4.80753 9.54075 4.80082C9.54076 4.79674 9.57305 4.77559 9.61261 4.75359C9.94607 4.56815 10.2825 4.33474 10.582 4.08227C10.6536 4.0219 10.7224 3.96439 10.735 3.95386C10.7402 3.94953 10.7452 3.94686 10.7497 3.94721Z" fill="url(#paint1_linear_3443_114047)"/>
<path d="M5.6338 3.69202C5.6338 3.69202 5.56393 3.80279 5.6298 3.96746C5.67057 4.06936 5.79297 4.19176 5.92787 4.32142C5.92787 4.32142 7.3409 5.69977 7.51402 5.89958C8.29692 6.80317 8.63696 7.69273 8.66837 8.92084C8.68852 9.70894 8.53652 10.4017 8.16737 11.2069C7.50573 12.6501 6.11162 14.2416 3.9585 16.0113L4.27453 15.9068C4.47767 15.7546 4.75353 15.5921 5.40426 15.2362C6.90288 14.4164 8.58577 13.6624 10.653 12.8855C13.6273 11.7678 18.5198 10.4563 21.3036 10.0299L21.5937 9.98537L21.5492 9.91551C21.2946 9.51986 21.1209 9.27589 20.9118 9.01732C20.3012 8.26223 19.562 7.64613 18.6563 7.13909C17.4117 6.44233 15.7975 5.9008 13.7568 5.49506C13.371 5.41836 12.5262 5.27353 11.8387 5.16639C10.3824 4.93944 9.44306 4.78618 8.40556 4.60551C8.03359 4.54097 7.47819 4.44771 7.1095 4.36799C6.91739 4.32646 6.55228 4.24012 6.26852 4.14244C6.03426 4.05021 5.70437 3.96104 5.6338 3.69202ZM6.45282 4.48709C6.4548 4.4853 6.50787 4.50171 6.57258 4.52368C6.69182 4.56416 6.84918 4.61155 7.03232 4.66273C7.16062 4.69859 7.30168 4.73621 7.45148 4.77451C7.64267 4.82339 7.80075 4.86538 7.80277 4.86765C7.82394 4.89145 8.14503 5.91623 8.25453 6.30942C8.29633 6.4595 8.32805 6.58454 8.32506 6.58753C8.32206 6.59053 8.28644 6.53527 8.24655 6.46511C7.87508 5.81184 7.28679 5.14751 6.60651 4.61283C6.52172 4.54619 6.45282 4.48961 6.45282 4.48709ZM8.01834 4.91955C8.0347 4.91842 8.10524 4.93023 8.18933 4.94882C8.73105 5.06862 9.69833 5.25537 10.3204 5.36C10.424 5.37743 10.5093 5.3962 10.5093 5.40191C10.5093 5.40762 10.4706 5.43211 10.4235 5.45581C10.3191 5.50831 9.89682 5.7611 9.75552 5.85567C9.40277 6.09176 9.08563 6.34446 8.85466 6.57423C8.76184 6.66656 8.68417 6.74189 8.68167 6.74189C8.67918 6.74189 8.66295 6.68808 8.64575 6.62213C8.53027 6.17951 8.29153 5.52592 8.07755 5.06592C8.04312 4.9919 8.01501 4.92662 8.01501 4.92088C8.01501 4.92016 8.01599 4.9197 8.01834 4.91955ZM10.7721 5.44317C10.7903 5.44921 10.8245 5.55613 10.8852 5.79645C11.0015 6.25663 11.0556 6.77343 11.0376 7.25153C11.0326 7.38458 11.0242 7.50814 11.019 7.52631L11.009 7.55958L10.8447 7.50635C10.5059 7.39807 9.95239 7.23509 9.47807 7.10383C9.20861 7.02926 8.98773 6.96268 8.98773 6.95613C8.98773 6.93643 9.38091 6.54334 9.54993 6.39392C9.87278 6.10851 10.7413 5.4329 10.7721 5.44317ZM10.991 5.47443C11.0008 5.46531 12.307 5.69148 12.9005 5.8051C13.343 5.8898 13.983 6.02385 14.0216 6.03997C14.0402 6.04775 13.974 6.08384 13.7615 6.17968C12.9208 6.55878 12.2981 6.89712 11.679 7.31141C11.5159 7.42054 11.3804 7.50968 11.3776 7.50968C11.3748 7.50968 11.3724 7.41859 11.3723 7.30742C11.3718 6.70371 11.2513 6.09437 11.0303 5.57956C11.0065 5.52415 10.9887 5.47665 10.991 5.47443ZM14.3682 6.14243C14.3784 6.15254 14.3355 6.41011 14.2984 6.56225C14.1828 7.03578 13.8766 7.73861 13.4987 8.39922C13.4321 8.51563 13.3725 8.61269 13.3656 8.61479C13.3587 8.6169 13.2726 8.57164 13.1746 8.51433C12.8051 8.29818 12.3867 8.0937 11.9272 7.90422C11.799 7.85138 11.6899 7.80433 11.6843 7.7991C11.6634 7.77944 12.6845 7.10336 13.2259 6.77848C13.6589 6.51863 14.3561 6.13028 14.3682 6.14243ZM14.6098 6.18035C14.6392 6.18035 15.2184 6.33827 15.5179 6.42785C16.264 6.65098 17.1246 6.96537 17.6829 7.21893L17.9151 7.32405L17.7515 7.36198C16.3854 7.6758 15.2145 8.03795 14.0868 8.4957C13.9931 8.53373 13.9116 8.56489 13.9058 8.56489C13.9001 8.56489 13.93 8.49245 13.9717 8.40388C14.3107 7.68364 14.5296 6.92787 14.5865 6.28614C14.5917 6.22772 14.6022 6.18035 14.6098 6.18035ZM8.852 7.50369C8.86125 7.49455 9.30213 7.59785 9.54261 7.66537C9.90406 7.76684 10.6732 8.02421 10.6737 8.04394C10.6737 8.04778 10.5889 8.12167 10.4854 8.20828C10.0696 8.55616 9.66846 8.91991 9.18799 9.38391C9.04555 9.52147 8.92451 9.63341 8.91853 9.63341C8.91255 9.63341 8.90989 9.61333 8.91321 9.58883C8.98557 9.0547 8.97002 8.36884 8.8693 7.67069C8.85653 7.58219 8.84879 7.50686 8.852 7.50369ZM18.136 7.51234C18.1426 7.51895 17.9315 7.849 17.8 8.03729C17.6082 8.31202 17.3302 8.67269 16.6969 9.46907C16.3642 9.8874 15.989 10.3608 15.8626 10.521C15.7362 10.6811 15.6301 10.8124 15.6271 10.8124C15.624 10.8124 15.5832 10.755 15.5366 10.6853C15.1795 10.1519 14.7559 9.68343 14.2505 9.26282C14.1562 9.18433 14.0498 9.09826 14.0143 9.07187C13.9788 9.04549 13.9499 9.02109 13.9498 9.01732C13.9494 9.00862 14.4892 8.77712 14.9012 8.60947C15.6184 8.3176 16.5987 7.96811 17.3323 7.74321C17.7191 7.62461 18.1301 7.50646 18.136 7.51234ZM18.3795 7.57621C18.3911 7.57385 18.4681 7.61111 18.5605 7.66404C19.3331 8.10662 20.0902 8.67497 20.6856 9.2595C20.8549 9.42577 21.2692 9.85674 21.2631 9.86029C21.2615 9.8612 21.1184 9.87254 20.945 9.88557C19.6062 9.98626 17.8945 10.2711 16.2465 10.6673C16.1345 10.6942 16.0378 10.7166 16.0316 10.7166C16.0254 10.7166 16.1479 10.5936 16.3037 10.4438C17.2715 9.51337 17.713 8.92588 18.2325 7.87628C18.3099 7.71995 18.3755 7.58509 18.3782 7.57688C18.3783 7.57636 18.3787 7.57636 18.3795 7.57621ZM11.3031 8.30142C11.3473 8.31134 11.76 8.5034 12.0715 8.65937C12.3564 8.80201 12.7879 9.03172 12.8094 9.05191C12.8121 9.05445 12.6601 9.13382 12.4714 9.22823C11.874 9.52711 11.3623 9.80936 10.828 10.1357C10.6757 10.2288 10.548 10.3054 10.5439 10.3054C10.5306 10.3054 10.5359 10.2939 10.6211 10.1377C10.9056 9.61666 11.1351 8.99453 11.2671 8.38658C11.2789 8.33232 11.2931 8.29919 11.3031 8.30142ZM10.8872 8.37594C10.8959 8.38455 10.7888 8.77795 10.7209 8.98804C10.5908 9.39099 10.3708 9.89752 10.1594 10.2788C10.1097 10.3683 10.0335 10.4994 9.99038 10.5702L9.91187 10.6986L9.73356 10.5263C9.52636 10.3254 9.35759 10.2007 9.14208 10.0898C9.05738 10.0463 8.9885 10.0059 8.98839 10C8.98799 9.9738 9.53046 9.48047 9.94913 9.12643C10.2488 8.87301 10.8796 8.36828 10.8872 8.37594ZM13.4142 9.41518L13.5692 9.51565C13.9248 9.74654 14.3459 10.0572 14.667 10.3247C14.8469 10.4746 15.1966 10.7877 15.2684 10.8636L15.307 10.9042L15.0495 10.976C13.5933 11.3801 12.4681 11.7398 11.1554 12.2222C11.0097 12.2758 10.8839 12.32 10.8753 12.32C10.8572 12.32 10.8392 12.3367 11.1667 12.0353C12.0064 11.2625 12.7481 10.4112 13.3024 9.58285L13.4142 9.41518ZM12.7502 9.58152C12.7578 9.58912 12.3198 10.2025 12.0596 10.5489C11.7482 10.9633 11.1936 11.6561 10.8121 12.1071C10.6526 12.2955 10.5161 12.4519 10.5087 12.4544C10.5006 12.4572 10.4955 12.411 10.4954 12.338C10.4946 11.9532 10.3973 11.5419 10.2252 11.1936C10.1526 11.0465 10.1404 11.0109 10.1554 10.9973C10.2152 10.9431 11.1416 10.4149 11.7256 10.1018C12.1267 9.88676 12.7425 9.57389 12.7502 9.58152ZM8.73423 10.5655C8.74219 10.5655 8.8165 10.6029 8.89924 10.6487C9.10198 10.761 9.28412 10.8846 9.44481 11.0186C9.45101 11.0238 9.3678 11.0918 9.25984 11.1697C8.95852 11.3871 8.49967 11.7334 8.23391 11.9448C7.95352 12.1678 7.94422 12.1746 7.97576 12.1264C8.18574 11.8053 8.29132 11.6234 8.40157 11.3912C8.49958 11.1848 8.59726 10.9397 8.66704 10.7265C8.69602 10.638 8.72628 10.5655 8.73423 10.5655ZM9.80408 11.4052C9.81856 11.4034 9.83916 11.4304 9.92517 11.5589C10.1065 11.8297 10.2453 12.191 10.2811 12.485L10.2884 12.5482L9.85399 12.7166C9.07411 13.0192 8.35624 13.3175 7.8713 13.5396C7.73563 13.6017 7.4961 13.7161 7.3397 13.7944C7.1833 13.8726 7.05561 13.9341 7.05561 13.9308C7.05561 13.9274 7.15383 13.8536 7.27384 13.7664C8.22557 13.0755 9.04615 12.3191 9.66437 11.5629C9.73048 11.482 9.79054 11.4119 9.7981 11.4072C9.8001 11.4059 9.80202 11.4054 9.80408 11.4052ZM9.31041 11.5276C9.323 11.5402 8.95925 11.9516 8.71427 12.2016C8.10113 12.8274 7.49327 13.318 6.74024 13.7957C6.64602 13.8555 6.55993 13.9095 6.54863 13.9161C6.52796 13.9282 6.55531 13.8971 6.88595 13.5369C7.09431 13.3099 7.25378 13.1214 7.43485 12.8862C7.55409 12.7313 7.57686 12.7096 7.75154 12.5835C8.22208 12.2438 9.2979 11.5151 9.31041 11.5276Z" fill="url(#paint2_radial_3443_114047)"/>
<defs>
<linearGradient id="paint0_linear_3443_114047" x1="6.3689" y1="21.7792" x2="14.6228" y2="16.9021" gradientUnits="userSpaceOnUse">
<stop stop-color="#909CA9"/>
<stop offset="1" stop-color="#EDEDEE"/>
</linearGradient>
<linearGradient id="paint1_linear_3443_114047" x1="5.59668" y1="3.48707" x2="12.238" y2="3.48707" gradientUnits="userSpaceOnUse">
<stop stop-color="#939FAB"/>
<stop offset="1" stop-color="#DCDEE1"/>
</linearGradient>
<radialGradient id="paint2_radial_3443_114047" cx="0" cy="0" r="1" gradientUnits="userSpaceOnUse" gradientTransform="translate(11.8617 9.12007) rotate(-171.401) scale(8.56842 17.1129)">
<stop stop-color="#EE352C"/>
<stop offset="1" stop-color="#A91D22"/>
</radialGradient>
</defs>
</svg>
