<svg width="24" height="24" viewBox="0 0 24 24" fill="none" xmlns="http://www.w3.org/2000/svg">
<path d="M5.77012 18.7168H4.84412C4.81155 17.1496 4.72128 15.676 4.57374 14.2955H4.56558L3.15568 18.7168H2.45062L1.04925 14.2955H1.041C0.937018 15.6213 0.871601 17.0949 0.84432 18.7168H0C0.0545617 16.7443 0.191109 14.8953 0.409641 13.1693H1.55738L2.89335 17.2454H2.90155L4.24573 13.1693H5.34391C5.58438 15.1908 5.72639 17.0404 5.77001 18.7168" fill="#00758F"/>
<path d="M9.78702 14.6239C9.40993 16.6755 8.91253 18.1663 8.29514 19.0963C7.8141 19.8129 7.28712 20.1712 6.71328 20.1712C6.56031 20.1712 6.37167 20.125 6.14783 20.0332V19.5387C6.25718 19.5547 6.3855 19.5633 6.53307 19.5633C6.80078 19.5633 7.01653 19.4891 7.18067 19.3411C7.37724 19.1606 7.4756 18.9579 7.4756 18.7331C7.4756 18.5796 7.39887 18.2647 7.24612 17.7882L6.22984 14.6239H7.13955L7.86895 16.9905C8.0328 17.5278 8.10115 17.9029 8.07381 18.1167C8.47274 17.0484 8.75143 15.8841 8.90999 14.6239H9.78699" fill="#00758F"/>
<path d="M13.8434 17.1791C13.8434 17.6496 13.671 18.0358 13.3273 18.338C12.9834 18.6389 12.5213 18.7897 11.9427 18.7897C11.4015 18.7897 10.8771 18.6161 10.369 18.2717L10.6067 17.7952C11.0439 18.0143 11.4395 18.1238 11.7948 18.1238C12.128 18.1238 12.3888 18.0494 12.5775 17.9025C12.7657 17.7545 12.8786 17.5482 12.8786 17.2864C12.8786 16.957 12.6495 16.6755 12.2291 16.4393C11.841 16.2257 11.0655 15.7799 11.0655 15.7799C10.6453 15.4726 10.4346 15.1428 10.4346 14.5995C10.4346 14.1501 10.5917 13.7868 10.9055 13.5105C11.22 13.2336 11.6258 13.0951 12.1227 13.0951C12.6363 13.0951 13.1034 13.2326 13.524 13.5064L13.3103 13.9825C12.9504 13.8295 12.5955 13.7527 12.2455 13.7527C11.9616 13.7527 11.7428 13.8211 11.5902 13.9586C11.4368 14.0949 11.342 14.2703 11.342 14.4842C11.342 14.8127 11.5761 15.0977 12.0083 15.3384C12.4012 15.5521 13.1958 16.0065 13.1958 16.0065C13.628 16.3133 13.8434 16.6404 13.8434 17.1791Z" fill="#F29111"/>
<path fill-rule="evenodd" clip-rule="evenodd" d="M15.4988 17.607C15.2747 17.2454 15.1624 16.6652 15.1624 15.865C15.1624 14.4681 15.586 13.7692 16.4329 13.7692C16.8757 13.7692 17.2006 13.9364 17.4084 14.2704C17.6323 14.6322 17.7445 15.2074 17.7445 15.9964C17.7445 17.4044 17.3209 18.1087 16.474 18.1087C16.0314 18.1087 15.7063 17.9418 15.4988 17.6071M18.7936 18.8506L17.7767 18.3478C17.8672 18.2733 17.9532 18.193 18.031 18.1C18.4628 17.591 18.6789 16.8377 18.6789 15.8404C18.6789 14.0051 17.9603 13.087 16.5233 13.087C15.8184 13.087 15.2691 13.3197 14.8757 13.7858C14.4438 14.2954 14.2281 15.0459 14.2281 16.0376C14.2281 17.0127 14.4193 17.728 14.8018 18.1825C15.1503 18.5932 15.6773 18.7988 16.3829 18.7988C16.6461 18.7988 16.8877 18.7663 17.1072 18.7013L18.4315 19.4741L18.7926 18.8505" fill="#F29111"/>
<path d="M22.1134 18.7168H19.4825V13.1693H20.3678V18.0344H22.1134V18.7168" fill="#F29111"/>
<path d="M22.7447 18.7162H22.8914V18.1518H23.0833V18.0365H22.5453V18.1518H22.7447V18.7162ZM23.8609 18.7162H23.9992V18.0365H23.7912L23.622 18.4998L23.4377 18.0365H23.2373V18.7162H23.3681V18.1989H23.3756L23.5685 18.7162H23.6682L23.8609 18.1989V18.7162Z" fill="#F29111"/>
<path fill-rule="evenodd" clip-rule="evenodd" d="M23.2246 11.3111C22.6895 11.2977 22.2752 11.3513 21.9277 11.4988C21.8274 11.539 21.6671 11.539 21.6534 11.6664C21.7073 11.7199 21.7137 11.807 21.7608 11.881C21.8408 12.0151 21.9809 12.1958 22.1082 12.2899C22.2486 12.3972 22.389 12.504 22.5363 12.5978C22.7968 12.7594 23.091 12.8528 23.3447 13.0138C23.4922 13.1075 23.6388 13.228 23.7863 13.3288C23.8596 13.3824 23.906 13.4697 24 13.5029V13.4826C23.9529 13.4224 23.9397 13.3353 23.8932 13.2678C23.8265 13.2013 23.7595 13.1406 23.6925 13.0739C23.4985 12.8125 23.2576 12.5848 22.9975 12.3972C22.7834 12.2493 22.3152 12.0482 22.2286 11.8009C22.2286 11.8009 22.2216 11.7938 22.215 11.7872C22.3622 11.7736 22.5363 11.7199 22.6765 11.6793C22.9035 11.6191 23.1107 11.6327 23.3447 11.5726C23.4518 11.5456 23.5588 11.5118 23.6662 11.4789V11.4181C23.5452 11.2977 23.4587 11.1366 23.3317 11.0228C22.991 10.728 22.6163 10.44 22.2286 10.1983C22.0211 10.0642 21.7537 9.97748 21.533 9.86326C21.4532 9.82297 21.3196 9.80312 21.2726 9.73571C21.1522 9.5883 21.0851 9.39418 20.9984 9.21963C20.8047 8.85139 20.6172 8.44266 20.4504 8.05327C20.3301 7.79205 20.2565 7.53083 20.1094 7.28937C19.4205 6.14969 18.6721 5.45969 17.5223 4.78258C17.2749 4.64166 16.9808 4.58137 16.6669 4.50762C16.4995 4.5006 16.3325 4.48757 16.1654 4.48098C16.0583 4.43386 15.9512 4.3064 15.8577 4.24611C15.4765 4.00494 14.4943 3.48222 14.2133 4.1725C14.0328 4.60844 14.4807 5.03722 14.6345 5.25848C14.7481 5.41243 14.8954 5.58701 14.9752 5.76101C15.022 5.87501 15.0355 5.99588 15.0825 6.11632C15.1893 6.41119 15.2894 6.73973 15.4301 7.01469C15.5034 7.15547 15.5835 7.30312 15.6771 7.42987C15.7311 7.50405 15.8243 7.53713 15.8445 7.65814C15.7512 7.79205 15.7439 7.99312 15.6905 8.16082C15.45 8.91827 15.5434 9.8566 15.8845 10.4128C15.9912 10.5804 16.2455 10.9491 16.5865 10.8081C16.8873 10.6876 16.8204 10.3055 16.9073 9.97061C16.9273 9.8896 16.9138 9.83646 16.9538 9.78291V9.79646C17.0474 9.98387 17.1412 10.1644 17.2281 10.3527C17.4356 10.6808 17.7963 11.0227 18.0973 11.2504C18.2573 11.3715 18.3844 11.579 18.585 11.6529V11.6327H18.5718C18.5316 11.5725 18.4716 11.5455 18.418 11.4988C18.2977 11.3781 18.1643 11.2305 18.0704 11.0966C17.7897 10.7214 17.542 10.3055 17.3219 9.87662C17.2147 9.66835 17.1212 9.44067 17.0343 9.23301C16.9943 9.15295 16.9943 9.03195 16.9273 8.99184C16.8267 9.13913 16.68 9.26668 16.6066 9.4471C16.4795 9.73566 16.4662 10.0908 16.4191 10.4597C16.3925 10.4667 16.4059 10.4597 16.3925 10.473C16.1788 10.4194 16.1053 10.1982 16.0249 10.0112C15.8243 9.53464 15.7906 8.77056 15.9647 8.22087C16.0113 8.08038 16.2124 7.638 16.1318 7.50395C16.0914 7.37606 15.9579 7.30302 15.8845 7.20206C15.7978 7.07474 15.7036 6.9142 15.6441 6.77314C15.4835 6.39792 15.4028 5.98218 15.2296 5.60696C15.1493 5.43238 15.0086 5.25136 14.8953 5.09082C14.7681 4.9098 14.6278 4.78249 14.5274 4.56824C14.4943 4.49434 14.4474 4.37361 14.5007 4.29342C14.5138 4.23971 14.541 4.21952 14.5945 4.20606C14.681 4.1323 14.9286 4.22596 15.0153 4.26621C15.2629 4.36645 15.4701 4.46083 15.6771 4.60132C15.7708 4.66849 15.871 4.7958 15.9912 4.8296H16.1318C16.3457 4.87615 16.5865 4.84263 16.7872 4.90321C17.1412 5.01707 17.462 5.18462 17.7497 5.36564C18.6251 5.92202 19.3471 6.71313 19.8349 7.65804C19.9153 7.812 19.949 7.95292 20.0224 8.11346C20.1628 8.44256 20.3368 8.77768 20.4769 9.09909C20.6172 9.41416 20.7512 9.73561 20.952 9.99742C21.052 10.1379 21.4532 10.2117 21.6337 10.2855C21.7671 10.3456 21.9746 10.3993 22.0951 10.4729C22.3223 10.6134 22.5491 10.7746 22.7634 10.929C22.8701 11.0094 23.2044 11.1768 23.2246 11.311" fill="#00758F"/>
<path fill-rule="evenodd" clip-rule="evenodd" d="M16.4058 5.4857C16.2924 5.4857 16.2124 5.49945 16.1317 5.51936V5.53282H16.1447C16.1987 5.6398 16.2924 5.71412 16.3587 5.80778C16.4125 5.91505 16.4594 6.02189 16.5128 6.1293C16.5194 6.12271 16.5258 6.11569 16.5258 6.11569C16.6201 6.04895 16.6668 5.94183 16.6668 5.78072C16.6263 5.73345 16.6201 5.68691 16.5863 5.63979C16.5464 5.57291 16.4594 5.5394 16.4058 5.4857Z" fill="#00758F"/>
</svg>
