<svg width="24" height="24" viewBox="0 0 24 24" fill="none" xmlns="http://www.w3.org/2000/svg">
<path d="M13.6354 21C12.9807 21 12.5523 20.7454 12.2937 20.4989C11.9017 20.1311 11.7482 19.6583 11.6552 19.3754C11.639 19.331 11.6269 19.2906 11.6188 19.2623C11.4329 18.7652 11.3723 18.054 11.336 17.1407C11.3319 17.0073 11.3279 16.8618 11.3238 16.7123C11.3198 16.6234 11.3198 16.5143 11.3157 16.4052C10.6974 16.6759 9.97003 16.7244 9.19412 16.5304C8.84658 16.4456 8.48691 16.2678 8.26465 16.0011C7.64635 16.5143 7.06038 16.4375 6.73708 16.3324C6.15919 16.1385 5.64596 15.605 5.16506 14.6957C4.8256 14.0532 4.49826 13.2167 4.19113 12.2145C3.6577 10.4646 3.31824 8.6178 3.28591 8.01162C3.18892 6.10014 3.70619 4.73422 4.82156 3.94619C5.74295 3.29556 6.99976 3.09754 8.55966 3.35214C9.22241 3.46125 9.8003 3.63098 10.1559 3.75221C10.8025 3.3683 11.5623 3.18241 12.4149 3.19453C12.8716 3.20261 13.308 3.24302 13.7122 3.31172C14.1486 3.17836 14.9811 2.98843 15.9308 3.00055C17.7129 3.02076 19.188 3.71584 20.2023 5.00902C20.8934 5.89404 20.6388 7.63984 20.2993 8.94918C19.9194 10.4161 19.2607 11.972 18.4525 13.3379C18.6667 13.3298 18.9617 13.3015 19.3577 13.2207C20.3438 13.0187 20.6186 13.5965 20.6792 13.7824C20.9863 14.7079 19.685 15.3949 19.2809 15.5848C18.7677 15.8232 17.9312 15.9687 17.2482 15.9364L17.2159 15.9324L17.0946 15.9202C17.0906 15.9526 17.0866 15.9808 17.0825 16.0132C17.0785 16.0576 17.0704 16.1061 17.0664 16.1546C17.0219 17.9166 16.7673 19.036 16.246 19.7755C15.6964 20.5595 14.9326 20.7818 14.2618 20.9232C14.0355 20.9758 13.8253 21 13.6354 21Z" fill="black"/>
<path d="M19.5152 13.9602C17.4825 14.3805 17.3411 13.6895 17.3411 13.6895C19.4869 10.505 20.3841 6.46384 19.6122 5.47375C17.4987 2.77828 13.8414 4.05125 13.7808 4.08762L13.7606 4.09166C13.3605 4.0068 12.9079 3.9583 12.4027 3.95022C11.4813 3.93406 10.7862 4.19269 10.2569 4.59277C10.2569 4.59277 3.73438 1.90538 4.03747 7.9712C4.10213 9.26034 5.88833 17.7387 8.01804 15.1766C8.79799 14.2391 9.54965 13.4511 9.54965 13.4511C9.92144 13.6976 10.37 13.8269 10.8388 13.7784L10.8752 13.7461C10.863 13.8633 10.8671 13.9764 10.8913 14.1098C10.3417 14.724 10.5034 14.8291 9.4082 15.0554C8.29688 15.2857 8.95155 15.6899 9.37587 15.799C9.89315 15.9283 11.0853 16.1102 11.8935 14.9827L11.8612 15.112C12.0754 15.2857 12.229 16.2314 12.2007 17.0922C12.1764 17.9529 12.1603 18.5429 12.3259 19.0036C12.4957 19.4643 12.6654 20.4989 14.1041 20.1917C15.3083 19.9331 15.9347 19.2663 16.0196 18.1469C16.0802 17.3548 16.2216 17.472 16.2297 16.7608L16.3429 16.4254C16.4722 15.3504 16.3631 15.0029 17.1067 15.1645L17.2885 15.1807C17.8341 15.2049 18.5494 15.0918 18.9697 14.8978C19.8708 14.4775 20.4043 13.7784 19.5152 13.9602Z" fill="#336791"/>
<path d="M13.7081 20.5312C12.4957 20.5312 12.1118 19.5694 11.9542 19.1774C11.7238 18.6036 11.6753 16.4496 11.7279 14.5705C11.7319 14.4331 11.8491 14.324 11.9865 14.324C12.1239 14.328 12.2371 14.4452 12.233 14.5826C12.1764 16.6759 12.2573 18.5672 12.423 18.9875C12.6816 19.6381 13.0776 20.2079 14.193 19.9695C15.268 19.7391 15.6519 19.3512 15.8297 18.3126C15.9671 17.5165 16.2378 15.2575 16.2702 14.8089C16.2823 14.6715 16.4035 14.5664 16.5409 14.5786C16.6783 14.5907 16.7834 14.7079 16.7713 14.8493C16.7349 15.3141 16.4641 17.5731 16.3227 18.4015C16.1085 19.6341 15.5589 20.1958 14.294 20.4666C14.0798 20.511 13.8859 20.5312 13.7081 20.5312Z" fill="white"/>
<path d="M7.1937 15.8839C7.07651 15.8839 6.97144 15.8637 6.87849 15.8313C6.09046 15.5686 5.34284 14.2916 4.65583 12.0407C4.13452 10.3272 3.80314 8.54102 3.77486 7.95909C3.68999 6.2335 4.13452 5.00902 5.10037 4.32606C7.00781 2.97631 10.2125 4.2614 10.3458 4.31394C10.4751 4.36648 10.5358 4.51196 10.4832 4.64128C10.4307 4.77059 10.2852 4.83121 10.1559 4.77868C10.1195 4.76251 7.06842 3.54611 5.39133 4.73422C4.57501 5.31211 4.20322 6.38707 4.28 7.9308C4.30425 8.41979 4.61138 10.1575 5.14078 11.8912C5.751 13.8916 6.44204 15.1524 7.04014 15.3504C7.13308 15.3828 7.41192 15.4757 7.812 14.9908C8.58791 14.0572 9.29916 13.3137 9.30724 13.3056C9.40423 13.2046 9.56184 13.2005 9.66287 13.2975C9.7639 13.3945 9.76794 13.5521 9.67095 13.6531C9.66287 13.6612 8.96374 14.3927 8.19996 15.31C7.83221 15.7545 7.48062 15.8839 7.1937 15.8839Z" fill="white"/>
<path d="M17.3292 13.9198C17.2807 13.9198 17.2322 13.9077 17.1877 13.8754C17.0705 13.7986 17.0422 13.641 17.119 13.5238C19.2851 10.3111 20.0489 6.43152 19.3982 5.60308C18.5819 4.56045 17.4261 4.01489 15.9713 3.98256C14.8923 3.95831 14.0316 4.23312 13.8861 4.28161C13.8739 4.28565 13.8618 4.29373 13.8497 4.29777C13.6961 4.34627 13.5789 4.2614 13.5345 4.16442C13.4819 4.04722 13.5264 3.90982 13.6355 3.84516C13.7285 3.78858 14.7226 3.46529 15.9067 3.47741C17.5353 3.49358 18.8769 4.124 19.7943 5.29191C20.4126 6.07994 20.0044 8.00354 19.8024 8.79562C19.3619 10.4929 18.5375 12.3195 17.5393 13.8067C17.4868 13.8794 17.41 13.9198 17.3292 13.9198Z" fill="white"/>
<path d="M17.4381 15.407C17.0623 15.407 16.7269 15.3545 16.5248 15.2332C16.3147 15.1079 16.2743 14.9342 16.2662 14.8412C16.2096 13.8754 16.7269 13.6854 17.0138 13.6006C16.9774 13.548 16.9289 13.4874 16.8804 13.4268C16.7188 13.2248 16.4965 12.95 16.3268 12.5337C16.3026 12.4691 16.2177 12.3195 16.1207 12.1498C15.5953 11.2082 14.5042 9.25227 15.2114 8.24601C15.5347 7.78127 16.1732 7.59538 17.1148 7.69237C16.9936 7.32462 16.6824 6.63358 16.1045 5.95062C15.4337 5.15854 14.2456 4.20482 12.3866 4.17653C11.4451 4.16037 10.6732 4.45134 10.0913 5.03327C8.78999 6.34665 8.83444 8.73095 8.83444 8.7552C8.83848 8.8926 8.72937 9.00979 8.58793 9.01384C8.45053 9.01788 8.33334 8.90876 8.32929 8.76732C8.32525 8.66225 8.27676 6.14459 9.72755 4.67764C10.4065 3.99064 11.3036 3.65118 12.3907 3.66734C14.4153 3.69967 15.7166 4.73018 16.4521 5.58691C17.2563 6.52042 17.6483 7.55497 17.6806 7.89847C17.7048 8.17327 17.4947 8.2258 17.4705 8.23389L17.3816 8.23793C16.7471 8.1369 15.9267 8.10457 15.6236 8.53698C15.0983 9.2846 16.1247 11.1233 16.5612 11.9073C16.6743 12.1094 16.7552 12.2549 16.7915 12.3438C16.933 12.6913 17.1229 12.9257 17.2724 13.1116C17.4058 13.2773 17.523 13.4228 17.5634 13.5965C17.5836 13.6329 17.8665 14.0128 19.4426 13.6854C19.8588 13.6006 20.1053 13.6733 20.1821 13.9077C20.3316 14.3603 19.5072 14.8816 19.0506 15.0958C18.6505 15.2898 18.0039 15.407 17.4381 15.407ZM16.7713 14.7927C16.832 14.8412 17.0946 14.9221 17.6038 14.9018C18.0686 14.8816 18.5535 14.7806 18.8445 14.6432C19.1839 14.4856 19.4224 14.3118 19.5598 14.1785C19.5557 14.1785 19.5517 14.1785 19.5476 14.1825C18.5131 14.3967 17.7816 14.3684 17.3694 14.0936C17.3452 14.0774 17.3209 14.0613 17.3007 14.0411C17.2644 14.0532 17.232 14.0613 17.1957 14.0734C16.9653 14.1421 16.743 14.2027 16.7713 14.7927Z" fill="white"/>
<path d="M10.0993 16.1223C9.84473 16.1223 9.57397 16.0859 9.29513 16.0172C9.21431 15.997 8.51518 15.8071 8.52326 15.3625C8.53135 14.9503 9.11732 14.8331 9.33958 14.7847C10.1155 14.627 10.164 14.5624 10.4065 14.2553C10.4792 14.1664 10.5681 14.0532 10.6893 13.9158C11.0935 13.4632 11.4733 13.6208 11.635 13.6895C11.8896 13.7946 12.1038 14.0492 12.1886 14.3522C12.2694 14.627 12.229 14.8938 12.0835 15.0999C11.6026 15.7747 10.9156 16.1223 10.0993 16.1223ZM9.08499 15.3868C9.15773 15.4353 9.28301 15.4959 9.42041 15.5323C10.0912 15.702 11.0288 15.7101 11.6713 14.8129C11.7481 14.7079 11.7239 14.5705 11.7037 14.4977C11.6592 14.3442 11.5501 14.2068 11.441 14.1583C11.3036 14.1017 11.2309 14.0694 11.0652 14.2553C10.9561 14.3805 10.8752 14.4816 10.8025 14.5705C10.4954 14.9625 10.3539 15.0918 9.44061 15.2817C9.25472 15.3181 9.14561 15.3585 9.08499 15.3868Z" fill="white"/>
<path d="M10.839 14.328C10.7177 14.328 10.6086 14.2391 10.5884 14.1138C10.5844 14.0815 10.5803 14.0451 10.5763 14.0128C9.98222 13.9966 9.41241 13.742 8.98001 13.2894C8.42636 12.7115 8.17581 11.9114 8.28896 11.0951C8.4102 10.2141 8.36575 9.43817 8.3415 9.02193C8.33342 8.90473 8.32938 8.81987 8.32938 8.76329C8.32938 8.68651 8.32938 8.48445 8.99617 8.14499C9.23056 8.02779 9.69934 7.82169 10.2085 7.76512C11.0612 7.67621 11.627 8.05608 11.7927 8.83603C12.2412 10.9172 11.829 11.8427 11.526 12.5135C11.4694 12.6388 11.4168 12.756 11.3764 12.8691L11.3401 12.9702C11.1825 13.3945 11.0451 13.7622 11.0855 14.033C11.1057 14.1704 11.0127 14.2997 10.8753 14.3199C10.8632 14.328 10.8511 14.328 10.839 14.328ZM8.83857 8.83603C8.83857 8.87644 8.84261 8.93302 8.84665 8.99364C8.87089 9.43009 8.91939 10.2383 8.79007 11.1678C8.69712 11.8306 8.89918 12.4771 9.34776 12.9459C9.69934 13.3137 10.16 13.5157 10.6329 13.5157C10.6854 13.2935 10.7743 13.055 10.8713 12.8045L10.9077 12.7034C10.9561 12.5741 11.0127 12.4489 11.0733 12.3155C11.3643 11.6729 11.724 10.8728 11.3077 8.94918C11.2269 8.57739 11.0329 8.36321 10.7177 8.29047C10.0226 8.12882 9.04871 8.65014 8.83857 8.83603Z" fill="white"/>
<path d="M10.2245 8.72693C10.2124 8.80775 10.374 9.03002 10.5882 9.0583C10.7984 9.08659 10.9802 8.91686 10.9923 8.832C11.0045 8.75117 10.8428 8.65823 10.6286 8.62994C10.4185 8.60165 10.2366 8.6461 10.2245 8.72693Z" fill="white"/>
<path d="M10.6328 9.1472C10.6126 9.1472 10.5964 9.1472 10.5762 9.14316C10.4428 9.12295 10.3095 9.04213 10.2165 8.92089C10.1842 8.87644 10.1317 8.79562 10.1397 8.71883C10.1438 8.69055 10.16 8.65013 10.2044 8.61376C10.2893 8.5491 10.455 8.52486 10.6368 8.55315C10.8631 8.58548 11.0935 8.69055 11.0692 8.85219C11.0571 8.97343 10.855 9.1472 10.6328 9.1472ZM10.3095 8.74308C10.3216 8.79966 10.4428 8.95322 10.6004 8.97747C10.7581 8.99768 10.8874 8.87644 10.9076 8.82795C10.8874 8.79966 10.7904 8.73904 10.6166 8.71479C10.4469 8.69055 10.3378 8.72288 10.3095 8.74308Z" fill="white"/>
<path d="M16.6663 8.55716C16.6784 8.63798 16.5168 8.86025 16.3026 8.88853C16.0924 8.91682 15.9106 8.74709 15.8985 8.66223C15.8863 8.58141 16.048 8.48846 16.2622 8.46017C16.4764 8.43188 16.6582 8.47633 16.6663 8.55716Z" fill="white"/>
<path d="M16.258 8.93704C16.0479 8.93704 15.8741 8.77135 15.858 8.67436C15.8418 8.54908 16.0439 8.4521 16.258 8.42381C16.4682 8.39552 16.6904 8.43189 16.7107 8.55717C16.7187 8.61374 16.6743 8.69861 16.6015 8.77943C16.553 8.83197 16.452 8.91683 16.3106 8.93704C16.2944 8.933 16.2742 8.93704 16.258 8.93704ZM16.3954 8.49655C16.3591 8.49655 16.3146 8.50059 16.2702 8.50463C16.0479 8.53696 15.9388 8.62183 15.9428 8.6582C15.9509 8.71477 16.1085 8.87238 16.2985 8.84813C16.4116 8.83197 16.4965 8.75923 16.5409 8.71477C16.6056 8.64607 16.6298 8.58545 16.6258 8.56525C16.6217 8.53696 16.5409 8.49655 16.3954 8.49655Z" fill="white"/>
<path d="M16.9735 13.3056C16.925 13.3056 16.8765 13.2935 16.8321 13.2611C16.7149 13.1843 16.6866 13.0267 16.7634 12.9136C17.2564 12.1781 17.1634 11.4264 17.0786 10.699C17.0422 10.3878 17.0018 10.0645 17.0139 9.75338C17.026 9.43412 17.0665 9.17145 17.1028 8.91685C17.1473 8.6178 17.1917 8.33492 17.1756 7.9995C17.1675 7.8621 17.2766 7.74086 17.414 7.73278C17.5514 7.7247 17.6726 7.83381 17.6807 7.97121C17.7009 8.35917 17.6524 8.68246 17.6039 8.99363C17.5676 9.23206 17.5272 9.47858 17.5191 9.76954C17.511 10.0403 17.5433 10.3313 17.5837 10.6384C17.6767 11.4183 17.7817 12.3034 17.1877 13.1924C17.1352 13.2652 17.0543 13.3056 16.9735 13.3056Z" fill="white"/>
</svg>
