<svg width="24" height="24" viewBox="0 0 24 24" fill="none" xmlns="http://www.w3.org/2000/svg">
<path d="M13.7315 5.02629C14.0955 4.66226 14.0955 4.07205 13.7315 3.70802C13.3674 3.34399 12.7772 3.34399 12.4132 3.70802C12.0492 4.07205 12.0492 4.66226 12.4132 5.02629C12.7772 5.39032 13.3674 5.39032 13.7315 5.02629Z" fill="#5D88D6"/>
<path d="M16.3672 7.66194C16.7717 7.2575 16.7717 6.60176 16.3672 6.19731C15.9628 5.79286 15.307 5.79286 14.9026 6.19731C14.4982 6.60176 14.4982 7.2575 14.9026 7.66194C15.307 8.06639 15.9628 8.06639 16.3672 7.66194Z" fill="#5D88D6"/>
<path d="M19.0026 10.2981C19.4474 9.8533 19.4474 9.13212 19.0026 8.68731C18.5578 8.2425 17.8366 8.2425 17.3918 8.68731C16.947 9.13212 16.947 9.8533 17.3918 10.2981C17.8366 10.7429 18.5578 10.7429 19.0026 10.2981Z" fill="#5D88D6"/>
<path d="M21.6361 12.931C22.1213 12.4458 22.1213 11.6591 21.6361 11.1738C21.1508 10.6886 20.3641 10.6886 19.8789 11.1738C19.3937 11.6591 19.3937 12.4458 19.8789 12.931C20.3641 13.4162 21.1508 13.4162 21.6361 12.931Z" fill="#5D88D6"/>
<path d="M8.53589 4.95316C8.85956 4.62949 8.85956 4.10472 8.53589 3.78106C8.21222 3.45739 7.68746 3.45739 7.36379 3.78106C7.04012 4.10472 7.04012 4.62949 7.36379 4.95316C7.68746 5.27683 8.21222 5.27683 8.53589 4.95316Z" fill="#32DBFC"/>
<path d="M11.1714 7.58871C11.5354 7.22468 11.5354 6.63447 11.1714 6.27044C10.8073 5.90641 10.2171 5.90641 9.85309 6.27044C9.48906 6.63447 9.48906 7.22468 9.85309 7.58871C10.2171 7.95274 10.8073 7.95274 11.1714 7.58871Z" fill="#32DBFC"/>
<path d="M13.8048 10.2222C14.2093 9.81774 14.2093 9.162 13.8048 8.75755C13.4004 8.3531 12.7446 8.3531 12.3402 8.75755C11.9358 9.162 11.9358 9.81774 12.3402 10.2222C12.7446 10.6266 13.4004 10.6266 13.8048 10.2222Z" fill="#32DBFC"/>
<path d="M16.4393 12.8564C16.8841 12.4116 16.8841 11.6904 16.4393 11.2456C15.9945 10.8008 15.2733 10.8008 14.8285 11.2456C14.3837 11.6904 14.3837 12.4116 14.8285 12.8564C15.2733 13.3012 15.9945 13.3012 16.4393 12.8564Z" fill="#32DBFC"/>
<path d="M19.0757 15.494C19.561 15.0088 19.561 14.2221 19.0757 13.7368C18.5905 13.2516 17.8038 13.2516 17.3186 13.7368C16.8333 14.2221 16.8333 15.0088 17.3186 15.494C17.8038 15.9792 18.5905 15.9792 19.0757 15.494Z" fill="#32DBFC"/>
<path d="M3.34293 4.88277C3.62618 4.59952 3.62618 4.14028 3.34293 3.85703C3.05968 3.57378 2.60044 3.57378 2.31719 3.85703C2.03394 4.14028 2.03394 4.59952 2.31719 4.88277C2.60044 5.16602 3.05968 5.16602 3.34293 4.88277Z" fill="black"/>
<path d="M5.97486 7.51446C6.29853 7.19079 6.29853 6.66602 5.97486 6.34235C5.65119 6.01869 5.12642 6.01869 4.80275 6.34235C4.47909 6.66602 4.47909 7.19079 4.80275 7.51446C5.12642 7.83813 5.65119 7.83813 5.97486 7.51446Z" fill="black"/>
<path d="M8.6115 10.1517C8.97553 9.78769 8.97553 9.19748 8.6115 8.83345C8.24747 8.46942 7.65726 8.46942 7.29323 8.83345C6.9292 9.19748 6.9292 9.78769 7.29323 10.1517C7.65726 10.5158 8.24747 10.5158 8.6115 10.1517Z" fill="black"/>
<path d="M11.2459 12.7861C11.6504 12.3816 11.6504 11.7259 11.2459 11.3214C10.8415 10.917 10.1857 10.917 9.78128 11.3214C9.37683 11.7259 9.37683 12.3816 9.78128 12.7861C10.1857 13.1905 10.8415 13.1905 11.2459 12.7861Z" fill="black"/>
<path d="M13.8801 15.421C14.3249 14.9762 14.3249 14.255 13.8801 13.8102C13.4353 13.3654 12.7141 13.3654 12.2693 13.8102C11.8245 14.255 11.8245 14.9762 12.2693 15.421C12.7141 15.8658 13.4353 15.8658 13.8801 15.421Z" fill="black"/>
<path d="M16.5129 18.0521C16.9981 17.5669 16.9981 16.7802 16.5129 16.2949C16.0277 15.8097 15.241 15.8097 14.7557 16.2949C14.2705 16.7802 14.2705 17.5669 14.7557 18.0521C15.241 18.5373 16.0277 18.5373 16.5129 18.0521Z" fill="black"/>
<path d="M8.53623 15.1977C8.8599 14.874 8.8599 14.3492 8.53623 14.0256C8.21257 13.7019 7.6878 13.7019 7.36413 14.0256C7.04046 14.3492 7.04046 14.874 7.36413 15.1977C7.6878 15.5213 8.21257 15.5213 8.53623 15.1977Z" fill="#5D88D6"/>
<path d="M5.38924 18.0017C5.84698 18.0017 6.21804 17.6306 6.21804 17.1729C6.21804 16.7151 5.84698 16.3441 5.38924 16.3441C4.93151 16.3441 4.56044 16.7151 4.56044 17.1729C4.56044 17.6306 4.93151 18.0017 5.38924 18.0017Z" fill="#5D88D6"/>
<path d="M2.8288 20.5646C3.28654 20.5646 3.65761 20.1936 3.65761 19.7358C3.65761 19.2781 3.28654 18.907 2.8288 18.907C2.37107 18.907 2 19.2781 2 19.7358C2 20.1936 2.37107 20.5646 2.8288 20.5646Z" fill="#5D88D6"/>
<path d="M7.95051 20.5632C8.40825 20.5632 8.77932 20.1922 8.77932 19.7344C8.77932 19.2767 8.40825 18.9056 7.95051 18.9056C7.49278 18.9056 7.12171 19.2767 7.12171 19.7344C7.12171 20.1922 7.49278 20.5632 7.95051 20.5632Z" fill="#5D88D6"/>
<path d="M13.6597 20.3223C13.9833 19.9986 13.9833 19.4739 13.6597 19.1502C13.336 18.8265 12.8112 18.8265 12.4876 19.1502C12.1639 19.4739 12.1639 19.9986 12.4876 20.3223C12.8112 20.646 13.336 20.646 13.6597 20.3223Z" fill="#5D88D6"/>
<path d="M11.0974 17.7587C11.4211 17.435 11.4211 16.9102 11.0974 16.5866C10.7737 16.2629 10.249 16.2629 9.9253 16.5866C9.60163 16.9102 9.60163 17.435 9.9253 17.7587C10.249 18.0823 10.7737 18.0823 11.0974 17.7587Z" fill="#5D88D6"/>
</svg>
