<svg width="24" height="24" viewBox="0 0 24 24" fill="none" xmlns="http://www.w3.org/2000/svg">
<path d="M18.4531 16.7184L14.6535 14.5234C14.1197 14.216 13.4371 14.3988 13.1281 14.9326C13.0084 15.1429 12.9615 15.3742 12.9842 15.599V19.8887C12.9842 20.5018 13.4824 21 14.097 21C14.7101 21 15.2083 20.5018 15.2083 19.8887V17.422L17.337 18.6513C17.8707 18.9603 18.555 18.7759 18.8623 18.2421C19.1712 17.7083 18.9885 17.0257 18.4531 16.7184Z" fill="#29B5E8"/>
<path d="M9.00323 12.0146C9.0097 11.6183 8.80104 11.2495 8.45812 11.0505L4.65851 8.85713C4.49352 8.76169 4.30427 8.71155 4.11502 8.71155C3.72519 8.71155 3.36286 8.92021 3.16876 9.25666C2.86789 9.77751 3.04744 10.4456 3.56829 10.7464L5.75844 12.0097L3.56829 13.2746C3.31595 13.4202 3.13479 13.6548 3.06038 13.9362C2.98436 14.2177 3.02318 14.5121 3.16876 14.7644C3.36286 15.1008 3.72519 15.3095 4.1134 15.3095C4.30427 15.3095 4.49352 15.2594 4.65851 15.1639L8.45812 12.9705C8.7978 12.7732 9.00646 12.4076 9.00323 12.0146Z" fill="#29B5E8"/>
<path d="M5.52064 7.30266L9.32025 9.49605C9.76346 9.75323 10.3102 9.66912 10.6596 9.32782C10.8812 9.12401 11.0187 8.83285 11.0187 8.50935V4.11287C11.0187 3.4982 10.5205 3 9.90742 3C9.29275 3 8.79455 3.4982 8.79455 4.11287V6.6152L6.63675 5.3697C6.10296 5.06075 5.42036 5.24353 5.11141 5.77732C4.80246 6.31111 4.98686 6.99371 5.52064 7.30266Z" fill="#29B5E8"/>
<path d="M14.0644 12.1925C14.0644 12.2766 14.0159 12.3931 13.9561 12.4545L12.4501 13.9604C12.3903 14.0203 12.2722 14.0688 12.1881 14.0688H11.8047C11.7206 14.0688 11.6025 14.0203 11.5427 13.9604L10.0351 12.4545C9.97528 12.3931 9.92676 12.2766 9.92676 12.1925V11.8091C9.92676 11.7234 9.97528 11.6069 10.0351 11.5471L11.5427 10.0395C11.6025 9.97968 11.7206 9.93115 11.8047 9.93115H12.1881C12.2722 9.93115 12.3903 9.97968 12.4501 10.0395L13.9561 11.5471C14.0159 11.6069 14.0644 11.7234 14.0644 11.8091V12.1925ZM12.7203 12.0081V11.9919C12.7203 11.9304 12.6847 11.8447 12.641 11.7994L12.1962 11.3562C12.1525 11.3109 12.0668 11.2753 12.0037 11.2753H11.9875C11.926 11.2753 11.8403 11.3109 11.795 11.3562L11.3518 11.7994C11.3081 11.8431 11.2726 11.9288 11.2726 11.9919V12.0081C11.2726 12.0712 11.3081 12.1569 11.3518 12.2006L11.795 12.6454C11.8403 12.6891 11.926 12.7246 11.9875 12.7246H12.0037C12.0668 12.7246 12.1525 12.6891 12.1962 12.6454L12.641 12.2006C12.6847 12.1569 12.7203 12.0712 12.7203 12.0081Z" fill="#29B5E8"/>
<path d="M14.6533 9.49605L18.4529 7.30266C18.9867 6.99533 19.171 6.31111 18.8621 5.77732C18.5531 5.24353 17.8705 5.06075 17.3368 5.3697L15.2081 6.59903V4.11287C15.2081 3.4982 14.7099 3 14.0968 3C13.4822 3 12.984 3.4982 12.984 4.11287V8.422C12.9629 8.64522 13.0066 8.87814 13.1279 9.08843C13.4369 9.62221 14.1195 9.805 14.6533 9.49605Z" fill="#29B5E8"/>
<path d="M10.0821 14.394C9.82977 14.3454 9.55965 14.3859 9.32025 14.5234L5.52064 16.7184C4.98686 17.0257 4.80246 17.7083 5.11141 18.2421C5.42036 18.7775 6.10296 18.9603 6.63675 18.6513L8.79455 17.4058V19.8887C8.79455 20.5018 9.29275 21 9.90742 21C10.5205 21 11.0187 20.5018 11.0187 19.8887V15.4923C11.0187 14.9375 10.6127 14.4781 10.0821 14.394Z" fill="#29B5E8"/>
<path d="M20.8274 9.2437C20.52 8.70829 19.8358 8.52551 19.302 8.83446L15.5024 11.0278C15.1385 11.2381 14.9379 11.6231 14.9444 12.0145C14.9411 12.4044 15.1417 12.7845 15.5024 12.9915L19.302 15.1865C19.8358 15.4939 20.5184 15.3111 20.8274 14.7773C21.1363 14.2435 20.9519 13.5609 20.4181 13.252L18.2668 12.0097L20.4181 10.7674C20.9535 10.4601 21.1363 9.77749 20.8274 9.2437Z" fill="#29B5E8"/>
</svg>
