<svg width="24" height="24" viewBox="0 0 24 24" fill="none" xmlns="http://www.w3.org/2000/svg">
<path d="M15.0425 11.1928C14.968 11.2176 14.8935 11.2425 14.8314 11.2797L10.634 2.89738C11.081 2.83529 11.5405 2.79803 12 2.79803H12.0124L15.0425 11.1928ZM14.3719 11.5778L7.35556 3.96536C6.92092 4.2013 6.51111 4.4745 6.11373 4.77254L14.2105 11.7392C14.2601 11.6771 14.3098 11.6274 14.3719 11.5778ZM13.9 12.1739L3.72941 7.43006C3.48105 7.85229 3.25752 8.31176 3.08366 8.77124L13.8131 12.385C13.8379 12.3105 13.8627 12.2359 13.9 12.1739ZM13.7013 13.0183C13.7013 12.981 13.7137 12.9438 13.7137 12.9065L2.5 12.2856C2.51242 12.7823 2.56209 13.2667 2.66144 13.751L13.7137 13.1301C13.7013 13.0928 13.7013 13.0556 13.7013 13.0183ZM13.8131 13.6516L3.9902 16.9549C4.25098 17.3523 4.54902 17.7248 4.8719 18.0725L13.9124 13.8503C13.8627 13.7882 13.8379 13.7137 13.8131 13.6516ZM14.2105 14.2974L7.47974 20.0967C7.86471 20.2954 8.27451 20.4693 8.69673 20.6183L14.3719 14.4588C14.3098 14.4091 14.2601 14.3595 14.2105 14.2974ZM14.8314 14.7569L11.615 21.1771C11.7392 21.1771 11.8758 21.202 12 21.202C12.2608 21.202 12.5092 21.1895 12.7575 21.1647L15.0425 14.8438C14.968 14.8065 14.9059 14.7817 14.8314 14.7569Z" fill="#00B7C9"/>
<path d="M15.7006 14.9556C15.7379 14.9556 15.7751 14.9432 15.8124 14.9432L16.1352 20.283C15.8496 20.4196 15.5516 20.5438 15.2535 20.6432L15.5888 14.9432C15.6261 14.9432 15.6633 14.9556 15.7006 14.9556ZM17.0294 14.4589L19.7241 17.3772C19.8607 17.1909 19.9849 17.0046 20.1091 16.8183L17.1908 14.3098C17.1411 14.3595 17.0915 14.4092 17.0294 14.4589ZM17.7 12.9066C17.7 12.9438 17.7124 12.9811 17.7124 13.0183C17.7124 13.0556 17.7 13.0928 17.7 13.1301L21.4254 13.3412C21.4627 13.1301 21.4875 12.919 21.5 12.6955L17.7 12.9066ZM17.1908 11.7268L20.8418 8.585C20.73 8.32421 20.6183 8.07585 20.4816 7.82748L17.0169 11.5778C17.0915 11.6275 17.1411 11.6772 17.1908 11.7268ZM15.5888 11.0811C15.6261 11.0811 15.6633 11.0687 15.7006 11.0687C15.7379 11.0687 15.7751 11.0811 15.8124 11.0811L16.247 3.75428C15.8869 3.58042 15.5019 3.41898 15.1169 3.2948L15.5888 11.0811ZM16.3588 14.8314L17.9235 19.1902C18.1346 19.0288 18.3333 18.8549 18.532 18.6811L16.5699 14.7569C16.5078 14.7817 16.4333 14.8066 16.3588 14.8314ZM17.5013 13.8504L20.8418 15.4151C20.9287 15.2164 21.0032 15.0177 21.0653 14.819L17.5882 13.6517C17.5633 13.7138 17.5385 13.7883 17.5013 13.8504ZM17.5882 12.385L21.4875 11.0687C21.4627 10.8327 21.4254 10.5968 21.3758 10.3608L17.5013 12.1739C17.5385 12.236 17.5633 12.3105 17.5882 12.385ZM19.215 5.98957C18.9915 5.74121 18.7431 5.49284 18.4947 5.26931L16.3588 11.1928C16.4333 11.2177 16.5078 11.2425 16.5699 11.2798L19.215 5.98957Z" fill="#1E384B"/>
</svg>
