<svg width="24" height="24" viewBox="0 0 24 24" fill="none" xmlns="http://www.w3.org/2000/svg">
<path d="M18.7014 11.649C18.7014 11.3468 18.5813 11.057 18.3677 10.8433C18.154 10.6296 17.8642 10.5096 17.562 10.5096C17.2598 10.5096 16.97 10.6296 16.7563 10.8433C16.5426 11.057 16.4226 11.3468 16.4226 11.649C16.4286 11.8656 16.5015 12.075 16.6315 12.2485C16.7614 12.4219 16.9418 12.5508 17.148 12.6175V14.3531C16.6514 13.0814 15.7221 12.0257 14.5236 11.3717C14.6983 10.9919 14.8768 10.6653 15.0477 10.3653C15.7006 9.39961 16.4201 8.48079 17.2012 7.61553C17.6304 7.10661 18.0367 6.62806 18.3672 6.21028C19.2939 5.0481 20.3117 3.33142 20.1218 2.31356C20.0988 2.1709 20.0442 2.03517 19.9621 1.91626C19.8799 1.79734 19.7723 1.69823 19.6471 1.62613C18.3596 0.866533 16.6087 3.33522 14.8882 5.71655C13.7488 7.28891 13.1601 9.51452 12.8905 10.7641C12.3628 10.6485 11.8242 10.5899 11.2839 10.5893C10.4985 10.5869 9.71808 10.7153 8.97477 10.9691C8.92641 9.57531 8.96828 8.1798 9.10011 6.79137C9.4799 3.1795 9.31279 1.06023 8.61017 0.334817C8.52001 0.225773 8.40599 0.13892 8.27691 0.0809672C8.14783 0.0230148 8.00716 -0.00448432 7.86576 0.000594937C5.79207 0.10314 6.02754 6.29764 6.06173 7.00406C6.14528 8.69796 6.82132 10.7565 7.2315 11.8959C6.27439 12.653 5.57736 13.6899 5.23757 14.8621H5.08944C4.93337 14.8549 4.77744 14.8789 4.63067 14.9324C4.4839 14.986 4.34921 15.0681 4.23441 15.1741C4.11961 15.2801 4.02697 15.4078 3.96186 15.5498C3.89675 15.6918 3.86047 15.8453 3.8551 16.0015V17.965C3.86097 18.121 3.89759 18.2743 3.96287 18.4161C4.02815 18.5579 4.1208 18.6854 4.23549 18.7912C4.35019 18.8971 4.48468 18.9793 4.63122 19.033C4.77777 19.0868 4.93349 19.111 5.08944 19.1044H5.34011C5.62556 19.7735 6.05173 20.3732 6.58964 20.8629L6.20985 21.1971C6.12129 21.2735 6.06645 21.3818 6.0572 21.4984C6.04796 21.615 6.08507 21.7305 6.16047 21.82C7.29987 23.2062 9.16467 24 11.2574 24C13.35 24 15.2224 23.2062 16.3542 21.82C16.4296 21.7305 16.4668 21.615 16.4575 21.4984C16.4483 21.3818 16.3934 21.2735 16.3049 21.1971L15.9251 20.8629C16.4646 20.3627 16.8906 19.7527 17.1746 19.074H17.4594C17.6154 19.0806 17.7711 19.0564 17.9177 19.0026C18.0642 18.9489 18.1987 18.8667 18.3134 18.7608C18.4281 18.655 18.5207 18.5275 18.586 18.3857C18.6513 18.2439 18.6879 18.0906 18.6938 17.9346V15.9863C18.6882 15.7636 18.6161 15.5477 18.4868 15.3663C18.3576 15.185 18.177 15.0464 17.9684 14.9684V12.6175C18.1763 12.5526 18.3587 12.4244 18.4901 12.2507C18.6216 12.0771 18.6954 11.8667 18.7014 11.649Z" fill="#CDCCCC"/>
<path d="M9.40776 21.1705C9.75717 20.9388 8.83806 21.0262 8.7621 20.8705C8.39504 20.838 8.03155 20.7732 7.67588 20.6768C7.03023 20.5059 5.48065 19.4652 5.31354 18.4663C5.14643 17.4675 5.31354 15.5723 6.01237 14.4329C6.44991 13.7387 7.01425 13.1332 7.67588 12.6478C7.67588 12.6478 6.32001 9.42336 6.20607 6.98886C6.09213 4.55436 6.28203 0.220871 7.86958 0.144911C9.45713 0.0689519 9.22546 4.12519 8.9558 6.76478C8.79569 8.51745 8.77029 10.2798 8.87984 12.0364C9.55608 11.8216 10.2594 11.7039 10.9687 11.687C11.5938 11.6725 12.2183 11.7311 12.8297 11.8617C12.8297 11.8617 13.3349 8.12446 14.9984 5.7849C16.6619 3.44535 18.4166 1.05643 19.5559 1.73626C20.6953 2.4161 19.2445 4.84301 18.2381 6.10773C17.2316 7.37246 15.4883 9.27144 14.9072 10.2855C14.5263 10.9603 14.1901 11.6593 13.9008 12.3782C14.9371 12.91 15.7844 13.7481 16.3277 14.7785C17.148 16.4154 17.2088 18.4284 16.7682 19.2829C16.547 19.6775 16.2413 20.0184 15.8729 20.281C15.5046 20.5436 15.0827 20.7216 14.6376 20.8021C14.1324 20.8249 12.0094 21.3528 12.0094 21.3528L9.40776 21.1705Z" fill="white"/>
<path d="M13.126 11.8959C13.126 11.8959 14.3945 8.58782 15.5301 6.73061C16.6657 4.8734 18.1887 3.46815 18.6672 3.753C19.1458 4.03785 17.6911 5.77352 16.415 7.47881C15.3755 8.9846 14.433 10.5551 13.5931 12.1807L13.126 11.8959Z" fill="#DD00A1"/>
<path d="M8.0329 12.4617L8.41269 12.1807C8.41269 12.1807 8.35952 8.87266 8.41269 6.86353C8.46587 4.8544 8.56841 2.34394 7.89617 2.36673C7.22393 2.38952 6.75678 4.33028 7.01884 7.06862C7.20755 8.89122 7.54672 10.6951 8.0329 12.4617Z" fill="#DD00A1"/>
<path d="M6.90111 19.5526C7.30804 19.5526 7.63792 19.2227 7.63792 18.8158C7.63792 18.4088 7.30804 18.0789 6.90111 18.0789C6.49419 18.0789 6.16431 18.4088 6.16431 18.8158C6.16431 19.2227 6.49419 19.5526 6.90111 19.5526Z" fill="#F9D8D2"/>
<path d="M15.6099 19.5526C16.0168 19.5526 16.3467 19.2227 16.3467 18.8158C16.3467 18.4088 16.0168 18.0789 15.6099 18.0789C15.2029 18.0789 14.873 18.4088 14.873 18.8158C14.873 19.2227 15.2029 19.5526 15.6099 19.5526Z" fill="#F9D8D2"/>
<path d="M12.4765 18.755C12.4685 18.7503 12.4597 18.7473 12.4506 18.7461C12.4415 18.7449 12.4322 18.7456 12.4233 18.7481C12.4145 18.7506 12.4062 18.7548 12.399 18.7606C12.3918 18.7663 12.3859 18.7735 12.3815 18.7816C12.3815 18.7816 12.1612 19.1614 11.8422 19.1842C11.7341 19.181 11.6279 19.1558 11.5299 19.1101C11.4319 19.0643 11.3443 18.9991 11.2725 18.9183V18.3562C11.4776 18.2423 11.808 17.9005 11.808 17.7827C11.7792 17.6572 11.7062 17.5463 11.6022 17.4702C11.4983 17.3942 11.3705 17.3582 11.2421 17.3687C10.8623 17.3687 10.5965 17.6156 10.5965 17.8207C10.5965 18.0258 11.0142 18.2917 11.132 18.3676V18.9221C11.072 18.9982 10.9968 19.0609 10.9111 19.106C10.8253 19.1512 10.7311 19.1778 10.6344 19.1842C10.3344 19.1842 10.1065 18.774 10.1027 18.7702C10.0938 18.7539 10.079 18.7416 10.0613 18.736C10.0437 18.7303 10.0245 18.7317 10.0078 18.7398C9.99119 18.7494 9.97884 18.7649 9.97321 18.7832C9.96757 18.8015 9.96907 18.8213 9.97739 18.8386C9.97739 18.8386 10.247 19.3285 10.6344 19.3285C10.7439 19.3237 10.8512 19.2967 10.9498 19.249C11.0484 19.2013 11.1362 19.134 11.2079 19.0513C11.3656 19.2164 11.5801 19.3155 11.808 19.3285H11.8536C11.9904 19.3016 12.1196 19.2447 12.2319 19.162C12.3442 19.0792 12.4368 18.9727 12.503 18.85C12.5077 18.842 12.5107 18.8332 12.5119 18.8241C12.5131 18.815 12.5125 18.8057 12.51 18.7968C12.5075 18.788 12.5032 18.7797 12.4975 18.7725C12.4917 18.7653 12.4846 18.7594 12.4765 18.755Z" fill="#10110E"/>
<path d="M7.67586 12.6555C7.67586 12.6555 6.62382 9.99687 6.42253 8.60681C6.22124 7.21675 6.04273 4.89619 6.30859 3.35041C6.42281 2.63829 6.57752 1.93326 6.77194 1.23874C6.77194 1.23874 6.282 4.84302 6.46431 6.41918C6.64661 7.99534 7.67586 12.6555 7.67586 12.6555Z" fill="#E5E5E5"/>
<path d="M12.8297 11.8617C12.8297 11.8617 13.5893 7.83962 14.6945 6.25966C15.7997 4.6797 17.1708 2.76173 17.8658 2.27938L18.5609 1.79324C18.5609 1.79324 15.7731 4.71768 14.6945 7.11041C13.6159 9.50313 12.8297 11.8617 12.8297 11.8617Z" fill="#E5E5E5"/>
<path d="M8.41263 16.4192C8.2983 16.4185 8.18631 16.4517 8.09088 16.5147C7.99545 16.5776 7.92086 16.6675 7.87658 16.773C7.83231 16.8784 7.82033 16.9946 7.84218 17.1068C7.86402 17.219 7.9187 17.3223 7.99928 17.4034C8.07987 17.4845 8.18272 17.5398 8.29481 17.5624C8.40689 17.585 8.52316 17.5738 8.62887 17.5302C8.73458 17.4866 8.82496 17.4127 8.88857 17.3176C8.95217 17.2226 8.98613 17.1109 8.98613 16.9965C8.98613 16.8441 8.92583 16.6978 8.81839 16.5897C8.71094 16.4815 8.56508 16.4202 8.41263 16.4192ZM8.57595 16.9547C8.53465 16.9547 8.49504 16.9383 8.46584 16.9091C8.43664 16.8799 8.42023 16.8403 8.42023 16.799C8.42023 16.7577 8.43664 16.7181 8.46584 16.6889C8.49504 16.6597 8.53465 16.6433 8.57595 16.6433C8.61725 16.6433 8.65685 16.6597 8.68605 16.6889C8.71526 16.7181 8.73166 16.7577 8.73166 16.799C8.73169 16.8201 8.72742 16.841 8.71913 16.8604C8.71083 16.8798 8.69868 16.8974 8.6834 16.9119C8.66813 16.9265 8.65005 16.9378 8.63028 16.9451C8.6105 16.9525 8.58943 16.9558 8.56835 16.9547H8.57595Z" fill="#10110E"/>
<path d="M14.0792 16.4193C13.9651 16.4193 13.8535 16.4531 13.7585 16.5165C13.6636 16.58 13.5896 16.6701 13.5459 16.7756C13.5022 16.8811 13.4908 16.9972 13.513 17.1092C13.5353 17.2212 13.5903 17.324 13.671 17.4048C13.7518 17.4855 13.8546 17.5405 13.9666 17.5627C14.0786 17.585 14.1947 17.5736 14.3002 17.5299C14.4057 17.4862 14.4958 17.4122 14.5592 17.3173C14.6227 17.2223 14.6565 17.1107 14.6565 16.9965C14.6565 16.8434 14.5957 16.6966 14.4875 16.5883C14.3792 16.4801 14.2324 16.4193 14.0792 16.4193ZM14.2426 16.9548C14.2016 16.9538 14.1625 16.9371 14.1335 16.9081C14.1045 16.8791 14.0878 16.84 14.0868 16.799C14.0927 16.7614 14.1118 16.7272 14.1407 16.7024C14.1696 16.6777 14.2064 16.6641 14.2445 16.6641C14.2825 16.6641 14.3193 16.6777 14.3482 16.7024C14.3771 16.7272 14.3962 16.7614 14.4021 16.799C14.4011 16.8407 14.3838 16.8803 14.354 16.9094C14.3242 16.9385 14.2842 16.9548 14.2426 16.9548Z" fill="#10110E"/>
<path opacity="0.2" d="M11.3486 21.0718C14.3061 21.0718 16.7037 19.3441 16.7037 17.213C16.7037 15.0819 14.3061 13.3543 11.3486 13.3543C8.39099 13.3543 5.99341 15.0819 5.99341 17.213C5.99341 19.3441 8.39099 21.0718 11.3486 21.0718Z" fill="#8ACCCE"/>
<path d="M17.8316 15.0672V12.5339C18.0315 12.4899 18.2112 12.3812 18.3431 12.2246C18.4749 12.0681 18.5514 11.8724 18.5608 11.668C18.5344 11.421 18.4176 11.1925 18.2329 11.0264C18.0481 10.8603 17.8085 10.7685 17.5601 10.7685C17.3117 10.7685 17.072 10.8603 16.8873 11.0264C16.7025 11.1925 16.5857 11.421 16.5593 11.668C16.5679 11.8721 16.6436 12.0677 16.7748 12.2243C16.906 12.3809 17.0853 12.4897 17.2847 12.5339V15.0026H17.2126C16.453 12.3668 14.2084 10.7299 11.2801 10.7299C8.35188 10.7299 6.09209 12.3516 5.34389 15.0026H5.08942C4.81421 14.9891 4.54483 15.085 4.33995 15.2692C4.13508 15.4535 4.01131 15.7112 3.99561 15.9863V17.9498C4.01227 18.2243 4.13646 18.481 4.34123 18.6645C4.546 18.8479 4.81483 18.9432 5.08942 18.9297H5.43504C5.72872 19.6747 6.19773 20.3378 6.80231 20.8629L6.30857 21.3035C6.2782 21.329 6.2532 21.3603 6.23502 21.3956C6.21685 21.4309 6.20585 21.4694 6.20267 21.509C6.19949 21.5486 6.20419 21.5884 6.2165 21.6261C6.22881 21.6638 6.24849 21.6987 6.27439 21.7288C7.3834 23.0695 9.20263 23.8557 11.2611 23.8557C13.3196 23.8557 15.1389 23.0961 16.2479 21.7288C16.2738 21.6987 16.2935 21.6638 16.3058 21.6261C16.3181 21.5884 16.3228 21.5486 16.3196 21.509C16.3164 21.4694 16.3054 21.4309 16.2872 21.3956C16.2691 21.3603 16.2441 21.329 16.2137 21.3035L15.72 20.8629C16.322 20.3355 16.7906 19.6731 17.0872 18.9297H17.467C17.7416 18.9432 18.0105 18.8479 18.2152 18.6645C18.42 18.481 18.5442 18.2243 18.5608 17.9498V15.9863C18.5524 15.7756 18.4772 15.573 18.3461 15.4078C18.215 15.2426 18.0349 15.1233 17.8316 15.0672ZM11.2801 13.529C13.9919 13.529 16.1947 15.314 16.1947 17.5055C16.1947 19.8792 13.7184 20.9237 11.2801 20.9237C8.84182 20.9237 6.36554 19.8602 6.36554 17.5055C6.36554 15.314 8.56837 13.529 11.2801 13.529Z" fill="white"/>
<path d="M18.0139 17.2928H17.2847C17.2847 17.1788 17.2847 17.0649 17.2847 16.9358C17.2843 16.4511 17.236 15.9677 17.1404 15.4925H17.448C17.5166 15.4879 17.5854 15.4971 17.6504 15.5196C17.7153 15.5421 17.7751 15.5774 17.8261 15.6235C17.8771 15.6696 17.9183 15.7254 17.9474 15.7877C17.9764 15.8501 17.9925 15.9176 17.9949 15.9863L18.0139 17.2928Z" fill="#515151"/>
<path d="M17.4671 18.4398H17.0873C17.1596 18.1714 17.2141 17.8987 17.2506 17.6232H18.0102V17.9498C18.0078 18.018 17.9917 18.085 17.9629 18.1469C17.9341 18.2088 17.8931 18.2642 17.8425 18.3099C17.7918 18.3556 17.7325 18.3907 17.668 18.413C17.6035 18.4353 17.5352 18.4444 17.4671 18.4398Z" fill="#515151"/>
<path d="M11.2801 23.3505C9.4571 23.3505 7.83916 22.6935 6.8175 21.5313L7.33023 21.0756C8.49731 21.8548 9.87733 22.2529 11.2801 22.215C12.6828 22.2521 14.0626 21.8541 15.23 21.0756L15.7389 21.5313C14.7211 22.6935 13.0994 23.3505 11.2801 23.3505Z" fill="#515151"/>
<path d="M5.08941 15.4925H5.41604C5.32121 15.9678 5.27287 16.4511 5.27171 16.9358C5.26265 17.0546 5.26265 17.1739 5.27171 17.2928H4.56149V15.9863C4.56017 15.9181 4.5732 15.8505 4.59973 15.7877C4.62626 15.7249 4.66569 15.6684 4.71548 15.6218C4.76526 15.5752 4.82428 15.5397 4.8887 15.5174C4.95312 15.4951 5.0215 15.4867 5.08941 15.4925Z" fill="#515151"/>
<path d="M11.2802 13.2024C10.6633 13.2042 10.0496 13.2924 9.45715 13.4644V11.4857C10.0501 11.3175 10.6639 11.2344 11.2802 11.2388C11.8952 11.2346 12.5077 11.3178 13.0994 11.4857V13.4796C12.5106 13.2954 11.8971 13.2019 11.2802 13.2024Z" fill="black"/>
<path d="M9.09631 11.5996V13.5973C7.27328 14.2658 6.00096 15.7736 6.00096 17.5055C6.00096 19.7501 8.13162 21.2693 11.2801 21.2693C14.4287 21.2693 16.5593 19.7501 16.5593 17.5055C16.5593 15.7736 15.2832 14.2658 13.464 13.5973V11.5996C15.5946 12.3592 16.9239 14.3304 16.9239 16.951C16.9239 19.8982 14.6641 21.8883 11.2801 21.8883C7.89615 21.8883 5.63635 19.9096 5.63635 16.951C5.63635 14.3304 6.96564 12.3668 9.09631 11.5996Z" fill="#515151"/>
<path d="M4.54249 17.6232H5.30209C5.33673 17.899 5.39131 18.1719 5.4654 18.4398H5.0856C5.01733 18.4444 4.94882 18.4353 4.88412 18.413C4.81941 18.3908 4.75982 18.3558 4.70885 18.3101C4.65788 18.2644 4.61657 18.209 4.58735 18.1472C4.55812 18.0853 4.54158 18.0182 4.5387 17.9498L4.54249 17.6232Z" fill="#515151"/>
<path d="M17.5582 12.0592C17.8099 12.0592 18.0139 11.8755 18.0139 11.649C18.0139 11.4224 17.8099 11.2388 17.5582 11.2388C17.3065 11.2388 17.1024 11.4224 17.1024 11.649C17.1024 11.8755 17.3065 12.0592 17.5582 12.0592Z" fill="#515151"/>
</svg>
